<?xml version="1.0" encoding="UTF-8" standalone="no"?>
<svg
   xmlns:dc="http://purl.org/dc/elements/1.1/"
   xmlns:cc="http://creativecommons.org/ns#"
   xmlns:rdf="http://www.w3.org/1999/02/22-rdf-syntax-ns#"
   xmlns:svg="http://www.w3.org/2000/svg"
   xmlns="http://www.w3.org/2000/svg"
   viewBox="0 0 1353.6 1353.6"
   height="1353.6"
   width="1353.6"
   xml:space="preserve"
   id="svg2"
   version="1.1"><metadata
     id="metadata8"><rdf:RDF><cc:Work
         rdf:about=""><dc:format>image/svg+xml</dc:format><dc:type
           rdf:resource="http://purl.org/dc/dcmitype/StillImage" /></cc:Work></rdf:RDF></metadata><defs
     id="defs6"><clipPath
       id="clipPath18"
       clipPathUnits="userSpaceOnUse"><path
         id="path16"
         d="M 0,1015.2 H 1015.2 V 0 H 0 Z" /></clipPath></defs><g
     transform="matrix(1.3333333,0,0,-1.3333333,0,1353.6)"
     id="g10"><g
       id="g12"><g
         clip-path="url(#clipPath18)"
         id="g14"><g
           transform="translate(1012.0791,507.6)"
           id="g20"><path
             id="path22"
             style="fill:#0095d9;fill-opacity:1;fill-rule:nonzero;stroke:none"
             d="m 0,0 c 0,-278.616 -225.863,-504.479 -504.479,-504.479 -278.616,0 -504.479,225.863 -504.479,504.479 0,278.616 225.863,504.479 504.479,504.479 C -225.863,504.479 0,278.616 0,0" /></g><g
           transform="translate(560.374,956.9677)"
           id="g24"><path
             id="path26"
             style="fill:#f7fcf9;fill-opacity:1;fill-rule:nonzero;stroke:none"
             d="m 0,0 c -2.819,-0.83 -5.46,-2.64 -6.8,-5.31 -2.96,-5.66 -3.7,-12.24 -3.309,-18.53 0.38,-4.41 2.28,-9.38 6.71,-11.12 4.259,-1.75 9.939,-1.57 13.219,2.01 3.491,3.61 4.521,8.73 5.29,13.51 0.481,5 0.561,10.41 -2.08,14.88 C 10.24,-0.52 4.69,1.35 0,0 m -6.88,10.49 c 7.601,1.47 15.71,0.83 22.891,-2.11 7.92,-3.19 13.83,-10.78 15.04,-19.22 1.21,-9.76 -0.471,-20.54 -7.34,-28 -4.521,-5.58 -11.9,-8.19 -18.95,-7.88 -8.761,-0.42 -18.061,2.24 -24.2,8.74 -6.931,6.64 -7.79,17.27 -6.121,26.22 1.701,9.87 8.29,20.13 18.68,22.25" /></g><g
           transform="translate(604.8447,940.288)"
           id="g28"><path
             id="path30"
             style="fill:#f7fcf9;fill-opacity:1;fill-rule:nonzero;stroke:none"
             d="m 0,0 c 2.74,7.36 9.359,13.43 17.279,14.48 10.75,1.29 21.991,-2.41 30.091,-9.54 4.54,-3.97 5.109,-10.54 4.069,-16.13 -5.229,0.93 -10.269,2.61 -15.419,3.82 -0.27,2.64 -0.38,5.6 -2.47,7.54 -3.46,3.17 -9.29,4.64 -13.33,1.69 -3.071,-1.87 -4.13,-5.51 -5.5,-8.62 -2.52,-5.95 -4.1,-12.59 -2.93,-19.04 1.75,-5.71 8.87,-7.79 14.1,-5.95 1.87,1.06 3.1,2.91 4.74,4.27 4.97,-0.13 9.63,-2.47 14.53,-3.32 -0.08,-6.05 -5.57,-10.71 -10.95,-12.44 -10.021,-2.05 -20.78,0.15 -29.33,5.71 -4.2,2.61 -6.61,7.2 -8.22,11.71 C -5.76,-17.16 -3.49,-8.03 0,0" /></g><g
           transform="translate(933.4746,606.7577)"
           id="g32"><path
             id="path34"
             style="fill:#ffffff;fill-opacity:1;fill-rule:nonzero;stroke:none"
             d="M 0,0 C 8.47,1.37 16.84,3.53 25.399,4.27 26.56,-0.44 27.22,-5.26 28.28,-10 22.95,-12.18 17.12,-12.36 11.56,-13.61 9.91,-13.95 8.3,-14.35 6.689,-14.76 7.52,-20.82 8.91,-26.79 9.85,-32.83 c 7.339,0.34 14.36,2.83 21.7,3.2 1.32,-5 2.389,-10.16 1.66,-15.35 -7.01,-0.3 -13.811,-2.24 -20.7,-3.36 -10.66,-1.78 -21.21,-4.22 -31.91,-5.71 -2.5,4.17 -2.06,9.79 -3.3,14.54 2.38,0.76 4.81,1.42 7.29,1.82 4.98,0.75 9.93,1.66 14.889,2.52 -0.769,6.2 -2.099,12.31 -3.139,18.47 -7.58,-0.59 -14.92,-2.65 -22.41,-3.72 -1.281,4.86 -2.12,9.81 -2.72,14.79 9.5,2.36 19.22,3.62 28.79,5.63" /></g><g
           transform="translate(414.2246,959.8075)"
           id="g36"><path
             id="path38"
             style="fill:#f8fcf8;fill-opacity:1;fill-rule:nonzero;stroke:none"
             d="m 0,0 c 5.12,0.94 10.24,2.17 15.49,2.17 2.14,-16.5 5.45,-32.82 8.1,-49.25 0.21,-1.71 0.25,-3.45 0.3,-5.18 -5,-0.69 -9.97,-1.6 -14.96,-2.41 C 8.14,-47.19 6.67,-39.8 5.37,-32.39 3.63,-21.59 1.55,-10.83 0,0" /></g><g
           transform="translate(372.5347,914.1478)"
           id="g40"><path
             id="path42"
             style="fill:#ffffff;fill-opacity:1;fill-rule:nonzero;stroke:none"
             d="M 0,0 C -0.1,7.65 0.01,15.3 -0.21,22.94 4.54,16.8 9.02,10.45 13.12,3.86 8.98,1.92 4.61,0.23 0,0 m 6.681,35.364 c 0,0 -14.791,-3.324 -18.391,-4.984 l -3.64,-59.33 14.71,4.37 c 0,0 0.6,7.38 0.75,11.08 6.81,2.53 13.51,5.41 20.56,7.21 3.25,-2.11 4.52,-6.37 7.93,-8.1 5.34,1.5 10.58,3.32 15.84,5.08 C 31.72,5.04 6.681,35.364 6.681,35.364" /></g><g
           transform="translate(522.4146,936.9178)"
           id="g44"><path
             id="path46"
             style="fill:#f7fcf9;fill-opacity:1;fill-rule:nonzero;stroke:none"
             d="m 0,0 c -0.6,10.97 -0.65,21.97 -0.74,32.95 -5.15,0.12 -10.29,0.02 -15.43,-0.09 -0.07,-7.36 0.4,-14.71 0.36,-22.07 -6.33,-0.07 -12.67,-0.18 -19,-0.26 0.18,7.32 -0.25,14.62 -0.18,21.93 -5.22,0 -10.44,-0.16 -15.66,-0.21 0.42,-10.57 0.39,-21.17 1.1,-31.73 -0.3,-8.01 0.11,-16.02 0.49,-24.02 5.01,0.08 10.03,0.15 15.04,0.54 0.02,2.45 0,4.89 -0.04,7.33 -0.06,5.18 -0.33,10.35 -0.22,15.53 6.35,0.14 12.7,0.62 19.05,0.25 l 0.02,-0.87 c 0.46,-7.16 -0.09,-14.34 0.49,-21.5 4.96,-0.24 9.94,-0.06 14.9,0.17 C 0.34,-14.7 0.1,-7.35 0,0" /></g><g
           transform="translate(697.3945,930.0477)"
           id="g48"><path
             id="path50"
             style="fill:#ffffff;fill-opacity:1;fill-rule:nonzero;stroke:none"
             d="M 0,0 C 1.33,-0.2 2.75,-0.16 4.01,-0.74 17.8,-7.8 32.229,-13.66 45.44,-21.8 c -1.28,-3.61 -1.41,-9.03 -5.76,-10.34 -4.53,1.35 -8.59,3.93 -13.02,5.56 -2.51,-1.06 -3.94,-3.69 -5.27,-5.94 -4.35,-9.25 -9.21,-18.25 -13.49,-27.54 -0.82,-1.55 -1.6,-3.31 -3.28,-4.08 -4.52,0.92 -8.57,3.37 -12.57,5.57 -1.85,0.91 -1.19,3.26 -0.35,4.65 4.54,8.61 8.34,17.59 12.88,26.2 1.24,2.92 3.67,8.79 3.67,8.79 0,0 -8.01,6.16 -12.42,8.45 C -4.25,-6.53 -1.83,-3.29 0,0" /></g><g
           transform="translate(300.5947,905.4877)"
           id="g52"><path
             id="path54"
             style="fill:#ffffff;fill-opacity:1;fill-rule:nonzero;stroke:none"
             d="m 0,0 c -1.57,-0.94 -0.5,-2.78 -0.09,-4.05 1.07,-2.24 3.71,-6.53 3.71,-6.53 l 4.663,1.483 3.077,-6.563 -3.64,-1.64 c 0,0 2.39,-7.46 4.31,-10.86 6.61,-0.27 12.42,4.9 14.52,10.91 1.23,4.34 0,8.97 -2.1,12.82 -2.52,5.58 -9,8.76 -14.96,8.35 C 6.13,3.28 2.67,2.23 0,0 m 6.1,16.87 c 6.61,3.1 14.48,3 21.21,0.33 7.8,-3.97 13.04,-11.67 16.03,-19.7 2.05,-6.8 3.02,-15.06 -1.7,-21.02 -3.87,-6.52 -10.41,-10.64 -17.06,-13.89 -6.9,-3.35 -13.34,-8.16 -21.05,-9.43 l -0.87,0.3 c -3.99,6.29 -7.68,12.83 -10.59,19.71 -1.89,0.02 -3.78,0.02 -5.66,0.04 -0.55,1.46 -2.437,5.621 -2.437,5.621 l 3.203,3.758 c 0,0 -6.186,11.681 -8.826,18.231 -1.32,2.31 1.76,3.54 3.24,4.64 8.13,3.9 15.98,8.43 24.51,11.41" /></g><g
           transform="translate(754.2041,901.0677)"
           id="g56"><path
             id="path58"
             style="fill:#ffffff;fill-opacity:1;fill-rule:nonzero;stroke:none"
             d="m 0,0 c 4.551,-2.6 8.641,-5.93 12.79,-9.12 -0.59,-2.16 -8.3,-14.09 -10.6,-18.37 4.43,-2.52 7.941,-6.63 12.77,-8.38 0.36,0.09 1.061,0.26 1.421,0.35 4.779,4.79 6.47,12.18 12.46,15.8 3.399,-2.14 6.889,-4.13 10.389,-6.1 1.75,-0.94 3.06,-3.39 1.651,-5.16 -2.61,-4.28 -5.41,-8.46 -8.431,-12.45 -4.21,-5.54 -7.3,-11.87 -11.95,-17.08 -3.479,-4.48 -7.31,-8.9 -9.359,-14.25 -4.851,0.35 -8.441,4.15 -12.241,6.78 -2.23,1.13 -2.17,4.1 -0.719,5.84 3.069,4.21 6.569,8.13 9.139,12.68 0.941,1.87 -0.75,3.7 -2.019,4.89 -3.341,2.34 -6.851,4.43 -10.431,6.37 -5.05,-5.21 -8.149,-11.85 -12.599,-17.53 -4.51,1.42 -8.441,4.19 -12.321,6.81 -1.769,0.94 -2.559,3.42 -1.069,4.97 C -22.399,-32.22 -2.3,-2.44 0,0" /></g><g
           transform="translate(210.3447,859.9877)"
           id="g60"><path
             id="path62"
             style="fill:#ffffff;fill-opacity:1;fill-rule:nonzero;stroke:none"
             d="m 0,0 c 6.12,7.37 14.12,13.82 23.72,15.69 5.83,1.17 10.94,-2.41 15.1,-6.03 -0.61,-1.48 -1.15,-3.08 -2.48,-4.08 -2.88,-2.4 -5.7,-4.99 -9.02,-6.78 -2.71,-0.25 -5.51,1.03 -8.14,-0.03 -5.11,-1.82 -9.59,-6.92 -8.69,-12.62 1.14,-5.65 4.49,-10.76 8.69,-14.63 3.78,-3.53 9.35,-3.68 14.16,-2.77 4.52,1.13 7.46,5 10.36,8.34 -1.57,2.03 -2.78,4.56 -5.09,5.84 -3.38,-0.83 -5.45,-4.3 -8.81,-5.28 -2.84,1.45 -4.91,4.25 -6.46,6.99 -1.02,1.69 0.81,3 1.93,3.97 6.14,4.78 11.53,10.44 17.6,15.31 2.91,-1.95 5.55,-4.3 7.68,-7.09 3.48,-4.77 7.27,-9.3 11.09,-13.8 1.47,-1.55 1.15,-4.05 -0.36,-5.46 -7.93,-9.37 -15.91,-19.9 -27.95,-24.13 -6.26,-2.65 -13.41,-1.77 -19.6,0.63 -5.46,2.11 -9.28,6.77 -13.01,11.06 -4.32,4.96 -5.59,11.65 -6.4,17.96 C -5.23,-10.94 -3.59,-4.89 0,0" /></g><g
           transform="translate(827.3242,850.1478)"
           id="g64"><path
             id="path66"
             style="fill:#ffffff;fill-opacity:1;fill-rule:nonzero;stroke:none"
             d="M 0,0 C 3.911,1.64 7.83,2.74 11.86,3.42 14.19,4 15.7,1.84 17.33,0.57 19.9,-1.95 21.866,-4.036 24.9,-7.11 18.75,-7.441 13.728,-7.713 8.42,-7.31 5.221,-5.41 2.71,-2.51 0,0" /></g><g
           transform="translate(802.335,821.4276)"
           id="g68"><path
             id="path70"
             style="fill:#ffffff;fill-opacity:1;fill-rule:nonzero;stroke:none"
             d="M 0,0 7.609,-7.25 15.67,9.66 Z M 19.71,27.06 33.489,14.35 10.89,-42.1 -1.53,-30.18 1.39,-19.3 -12.4,-6.09 -23.051,-9.06 -34.021,2.98 Z" /></g><g
           transform="translate(174.3247,824.2079)"
           id="g72"><path
             id="path74"
             style="fill:#ffffff;fill-opacity:1;fill-rule:nonzero;stroke:none"
             d="m 0,0 c 2.42,4.2 6.35,7.23 9.67,10.68 4.02,-1.66 7.05,-4.78 10.09,-7.77 7.15,-6.19 14.2,-12.51 21.01,-19.08 3.31,-3.16 7.21,-5.68 10.29,-9.08 0.05,-0.45 0.14,-1.37 0.19,-1.83 -2.53,-4.21 -6.44,-7.36 -9.22,-11.39 -1.57,-1.96 -3.47,-4.46 -6.22,-4.41 -8.2,1.52 -15.8,5.12 -23.75,7.49 -5.58,1.7 -10.86,4.25 -16.5,5.77 8.84,-8.08 18.13,-15.66 26.77,-23.96 1.25,-1.13 3.2,-2.97 1.63,-4.69 -2.48,-2.93 -4.76,-6.07 -7.54,-8.71 -2.28,-1.83 -3.99,1.68 -5.67,2.81 -5.12,3.85 -9.3,8.77 -14.42,12.61 -6,4.27 -10.53,10.19 -16.32,14.69 -2.2,2.04 -5.25,3.71 -6.07,6.79 0.71,2.8 3.41,4.49 5,6.8 3,3.4 5.17,8.23 9.86,9.54 13.15,-2.35 25.39,-8.02 38.22,-11.33 -1.32,2.04 -3.08,3.74 -4.98,5.23 -4.99,4.01 -9.62,8.46 -14.67,12.4 C 4.73,-5.17 1.87,-2.99 0,0" /></g><g
           transform="translate(853.835,809.3075)"
           id="g76"><path
             id="path78"
             style="fill:#ffffff;fill-opacity:1;fill-rule:nonzero;stroke:none"
             d="M 0,0 C 1.489,0.8 3.199,3.04 5.02,1.83 8.819,-1.32 12.25,-5 14.89,-9.19 12.609,-13.36 8.369,-15.72 5.039,-18.94 -2.69,-25.53 -9.65,-32.99 -17.721,-39.2 c -2.429,-1.91 -4.809,-3.88 -7.139,-5.91 -1.04,-1.09 -2.93,-1.43 -3.981,-0.18 -2.779,2.53 -5.37,5.27 -7.779,8.14 -0.931,1.05 -1.53,3.08 -0.301,4.1 5.03,4.64 10.191,9.15 14.9,14.13 C -15.011,-12.25 -7.58,-6.02 0,0" /></g><g
           transform="translate(139.4146,755.8978)"
           id="g80"><path
             id="path82"
             style="fill:#ffffff;fill-opacity:1;fill-rule:nonzero;stroke:none"
             d="m 0,0 c -6.08,-0.88 -11.58,-8.14 -8.65,-14.17 2.39,-5.65 8.03,-8.7 12.74,-12.15 4.62,-1.66 10.2,-3.22 14.72,-0.47 2.47,2.24 4.4,5.58 4.29,8.97 -0.92,4.96 -3.77,9.72 -8.19,12.3 C 10.39,-2.77 5.54,0.47 0,0 m -9.6,19.22 c -0.22,4.24 5.41,7.09 8.67,4.38 2.38,-1.44 2.15,-4.62 3.76,-6.59 3.52,-0.38 7.18,0 10.54,-1.33 6.11,-1.79 11.28,-5.65 16.18,-9.58 3.69,-2.94 5.34,-7.48 7.16,-11.66 1.01,-2.27 0.81,-4.81 0.82,-7.23 0.43,-9.64 -5.17,-18.48 -11.96,-24.85 -10.81,-10.91 -30.14,-8.15 -39.94,2.77 -7.52,6.46 -11.46,17.07 -8.71,26.74 3.07,8.66 9.2,15.83 16.3,21.5 -1.35,1.71 -3.35,3.43 -2.82,5.85" /></g><g
           transform="translate(103.2446,760.8778)"
           id="g84"><path
             id="path86"
             style="fill:#ffffff;fill-opacity:1;fill-rule:nonzero;stroke:none"
             d="M 0,0 C 1.21,1.87 2.16,3.99 3.95,5.39 8.36,6.09 12.87,5.91 17.29,5.34 16.37,2.2 14.98,-1.12 12.33,-3.16 7.22,-5.53 1.98,-8.37 -3.82,-8.21 -3.66,-5.04 -1.53,-2.6 0,0" /></g><g
           transform="translate(866.4844,725.1678)"
           id="g88"><path
             id="path90"
             style="fill:#ffffff;fill-opacity:1;fill-rule:nonzero;stroke:none"
             d="m 0,0 c 1.95,-3.47 3.58,-9.42 8.63,-8.81 1.81,-0.18 3.66,0.48 4.471,2.22 C 14.13,-2.44 10.628,2.309 7.848,5.109 5.518,4.085 2.378,1.99 0,0 m 24.15,15.39 c -1.86,-1.15 -5.06,-2.45 -4.21,-5.18 1.36,-3.16 3.17,-6.65 6.75,-7.67 1.911,0.12 3.67,1.29 5.11,2.5 1.753,3.777 -1.75,7.38 -3.85,10.35 -0.9,1.64 -2.63,0.57 -3.8,0 m 4.932,22.148 C 35.111,29.558 40.795,20.249 45.154,11.269 47.4,6.879 49.19,1.781 46.92,-3.55 c -2.35,-4.5 -6.77,-9.01 -12.28,-8.42 -3.289,-0.3 -6.38,0.87 -9.27,2.28 -0.23,-2.89 -0.14,-5.83 -0.599,-8.7 -2.641,-5.34 -8.301,-8.74 -14.141,-9.21 -4.2,0.38 -8.45,2.06 -11.33,5.23 -4.44,4.76 -7.46,10.6 -10.83,16.13 -2.28,4 -4.97,7.78 -6.94,11.95 -0.63,1.49 -1.23,3.83 0.59,4.72 5.62,3.88 44.662,26.617 46.962,27.108" /></g><g
           transform="translate(93.4844,722.7079)"
           id="g92"><path
             id="path94"
             style="fill:#ffffff;fill-opacity:1;fill-rule:nonzero;stroke:none"
             d="m 0,0 c 0.72,3.86 5.69,2.97 8.53,2.56 3.36,-1.97 3.57,-6.15 4.87,-9.41 2.42,-2.98 6.53,-3.56 9.73,-5.42 7.38,-3.96 15.68,-6.28 22.36,-11.48 6.69,-5.68 7.42,-15.45 5.44,-23.46 -3.04,-9.05 -8.18,-18.02 -16.64,-22.96 -5.3,-2.35 -11.44,-2.19 -16.89,-0.46 -4.61,1.98 -9.06,4.33 -13.66,6.34 -6.29,2.77 -20.366,9.236 -20.366,9.236 l 5.696,12.194 c 0,0 2.39,2.5 3.96,1.78 11.91,-3.52 22.27,-11.24 34.56,-13.68 6.2,-1.15 10.19,5.84 10.38,11.15 -1.11,4.49 -5.3,7.45 -9.31,9.27 -6.05,3.37 -12.56,5.81 -18.7,9 -3.11,1.62 -6.8,2.39 -9.35,4.91 -0.11,4.14 2.59,7.7 2.95,11.8 C 0.7,-6.72 -1.07,-3.46 0,0" /></g><g
           transform="translate(912.374,703.9276)"
           id="g96"><path
             id="path98"
             style="fill:#ffffff;fill-opacity:1;fill-rule:nonzero;stroke:none"
             d="M 0,0 C 4.28,1.92 8.381,4.62 13.181,5.01 15.03,0 18.211,-4.42 19.73,-9.56 14.271,-12.8 8.16,-14.7 2.561,-17.65 c -9.43,-5.15 -19.88,-8.19 -29.05,-13.84 -1.811,-1.22 -4.87,-2.1 -6.21,0.23 -1.821,3.17 -3.321,6.53 -5.04,9.75 -0.17,1.62 -0.981,4.28 1.05,5 12.28,5.4 24.21,11.58 36.689,16.51" /></g><g
           transform="translate(931.7949,680.288)"
           id="g100"><path
             id="path102"
             style="fill:#ffffff;fill-opacity:1;fill-rule:nonzero;stroke:none"
             d="m 0,0 c 2.159,0.85 4.52,0.59 6.79,0.49 1.56,-6.34 3.369,-12.64 5.88,-18.68 0.659,-2.35 -1.63,-3.85 -2.95,-5.41 -8.93,-8.33 -18,-16.56 -26.46,-25.38 7.45,1.18 14.03,5.12 21.08,7.58 4.62,1.63 8.96,4.46 13.97,4.71 2.95,-2.07 2.98,-6.16 4.15,-9.29 0.489,-2.1 2.09,-5.48 -0.841,-6.49 -14.619,-5.56 -29.84,-9.47 -44.26,-15.57 -2.229,-0.97 -4.639,-1.43 -7.049,-1.59 -2.42,5.27 -3.92,10.87 -5.88,16.3 -0.63,2.17 -1.521,4.96 0.21,6.84 3.99,5.01 9.57,8.39 14.139,12.8 4.981,5.04 10.62,9.36 15.491,14.5 -9.56,-3.14 -19.111,-6.38 -28.361,-10.37 -2.859,-0.83 -6.239,-3.01 -9.08,-1.17 -1.829,3.67 -3.489,7.52 -4.35,11.53 -0.24,3.61 4.46,3.13 6.771,4.33 C -27.29,-9.55 -13.381,-5.53 0,0" /></g><g
           transform="translate(76.3057,619.3451)"
           id="g104"><path
             id="path106"
             style="fill:#ffffff;fill-opacity:1;fill-rule:nonzero;stroke:none"
             d="m 0,0 c 3.669,-1.34 7.334,-2.487 11.259,-2.927 1.54,3.929 3.005,8.926 2.19,12.33 -1.032,2.136 -4.61,3.67 -7.61,2.75 C 1.869,9.772 0.61,4.2 0,0 m -1.976,27.095 c 4.016,3.458 9.965,3.028 14.555,2.197 5.78,-1.399 8.53,-7.319 9,-12.779 1.96,1.4 3.6,3.759 6.2,3.87 7.68,0.429 15.29,-1.05 22.87,-1.98 l 0.57,-0.72 c -1.29,-5.221 -1.96,-11.03 -4.81,-15.6 -5.92,-0.15 -11.7,1.87 -17.64,1.379 -2.81,0.401 -3.88,-2.71 -4.82,-4.759 -0.62,-1.87 -1.86,-5.04 0.78,-5.89 5.32,-1.98 10.86,-3.32 16.31,-4.91 1.69,-1.151 0.82,-3.191 0.42,-4.77 -1.32,-4.07 -1.53,-8.66 -4.43,-12.05 -8.67,3.49 -18.02,4.77 -26.79,7.99 -8.58,3.25 -17.75,4.73 -26.13,8.5 1.11,7.78 3.432,15.321 5.589,23.011 1.896,5.98 4.74,11.444 8.326,16.511" /></g><g
           transform="translate(552.085,902.9877)"
           id="g108"><path
             id="path110"
             style="fill:#f2fbf5;fill-opacity:1;fill-rule:nonzero;stroke:none"
             d="m 0,0 c 4.27,-0.11 8.579,-0.3 12.699,-1.53 -0.179,-3.41 -0.429,-6.82 -0.87,-10.2 -4.22,0.08 -8.439,0.42 -12.6,1.07 C -0.78,-7.09 -0.54,-3.53 0,0" /></g><g
           transform="translate(383.1646,884.6576)"
           id="g112"><path
             id="path114"
             style="fill:#effaf9;fill-opacity:1;fill-rule:nonzero;stroke:none"
             d="m 0,0 c 3.97,1.34 7.94,2.72 11.98,3.89 1.5,-3.3 2.76,-6.73 3.37,-10.32 C 11.36,-7.93 7.33,-9.38 3.18,-10.38 1.88,-6.99 0.72,-3.55 0,0" /></g><g
           transform="translate(508.1045,670.1176)"
           id="g116"><path
             id="path118"
             style="fill:#ffffff;fill-opacity:1;fill-rule:nonzero;stroke:none"
             d="m 0,0 c -7.77,-4.17 -15.99,-7.36 -23.93,-11.16 1.08,-10.92 3.56,-21.67 6.62,-32.2 2.52,-7.62 5.03,-15.51 10.09,-21.89 2.56,-3.07 5.87,-6.38 10.21,-6.18 3.09,0.36 6.13,1.85 8.11,4.3 5.68,6.79 8.72,15.24 11.49,23.52 2.9,10.74 5.65,21.56 6.78,32.65 C 21.66,-7.62 13.81,-4.54 6.4,-0.55 4.43,0.57 2.06,1.41 0,0 M 20.31,10.71 C 17.05,8.79 13.57,7.22 10.5,4.99 c 6.18,-3.92 12.94,-6.87 19.76,-9.5 1.29,7.17 1.67,14.48 1.83,21.75 -4.17,-1.72 -7.85,-4.37 -11.78,-6.53 m -47.22,6.58 c 0.27,-7.23 0.95,-14.45 1.85,-21.62 6.93,2.36 13.72,5.37 19.91,9.31 -7.13,4.29 -14.3,8.62 -21.76,12.31 M 48.57,28.44 C 45.37,26 41.51,24.22 38.96,21.04 38.45,11.66 37.7,2.27 36.6,-7.07 c 4.37,-1.89 8.85,-3.54 13.4,-4.97 13.5,-4.51 27.61,-8.55 41.98,-7.54 4.22,0.19 8.8,1.75 11.16,5.46 1.37,3.17 0.88,6.84 -0.19,10.02 C 99.62,4.52 93.21,11.33 87.24,18.18 79.61,25.38 71.81,32.39 63.59,38.9 58.46,35.59 53.74,31.7 48.57,28.44 M -80.85,18.87 c -7.03,-6.9 -13.69,-14.61 -17.12,-23.98 -1.46,-4.26 -1.09,-10.24 3.5,-12.42 5.72,-2.71 12.32,-2.98 18.51,-2.13 9.88,0.93 19.45,3.72 28.88,6.71 1.49,0.47 2.9,1.18 4.26,1.97 4.07,0.39 7.77,2.26 11.43,3.92 -0.46,5.39 -0.88,10.78 -1.51,16.14 -0.08,3.71 -0.38,7.42 -0.86,11.09 -0.11,2.49 -2.66,3.49 -4.39,4.75 -6.97,4.2 -13.25,9.4 -19.84,14.16 -7.89,-6.41 -15.94,-12.72 -22.86,-20.21 M 39.83,55.15 c -0.24,-8.24 -0.12,-16.5 -0.05,-24.75 6.52,3.4 12.43,7.86 18.25,12.34 -2.79,2.35 -5.76,4.48 -8.81,6.47 -3.11,2.02 -5.87,4.62 -9.39,5.94 m -88.56,-9.42 c -1.39,-0.85 -2.57,-1.98 -3.53,-3.29 5.92,-4.28 11.6,-8.98 18.06,-12.46 -0.16,8.41 -0.11,16.81 -0.07,25.21 -5.32,-2.35 -9.65,-6.3 -14.46,-9.46 m 36.57,23.37 c -5.09,-3.2 -10.57,-5.78 -15.42,-9.37 -0.22,-10.85 -0.44,-21.72 0.05,-32.56 -0.05,-2.15 2.38,-2.84 3.81,-3.94 8.78,-5.07 17.37,-10.55 26.66,-14.69 10.04,5.28 20.12,10.61 29.5,17.02 1.6,8.67 0.29,17.64 0.72,26.43 -0.24,3.19 0.87,7.69 -2.57,9.52 C 21.52,66.92 12.38,72.22 2.96,76.98 -2.26,74.71 -7.33,72.1 -12.16,69.1 M 10.05,80.69 C 17.39,76.44 24.8,72.3 32.16,68.07 32.06,75.4 31.41,82.71 30.47,89.97 23.36,87.65 16.63,84.23 10.05,80.69 m -34.91,9.22 c -1.34,-7.22 -1.57,-14.59 -2.08,-21.9 7.31,4.33 14.8,8.35 22.11,12.69 -6.49,3.42 -13.01,6.98 -20.03,9.21 m 81.2,9.76 c -6.46,-2.08 -13.09,-3.86 -19.13,-7 L 36.8,91.94 c 0.79,-9.52 1.78,-19.04 2.5,-28.57 8.33,-4.92 15.91,-10.95 23.75,-16.59 9.73,6.82 18.58,14.83 26.65,23.53 5.3,5.89 10.3,12.24 13.28,19.65 1.11,2.73 1.26,5.82 0.54,8.67 -0.9,3.49 -4.66,5.14 -7.82,6 -13.31,2.52 -26.63,-1.41 -39.36,-4.96 m -147.01,4.91 c -4.21,-0.61 -7.95,-4.33 -8.01,-8.68 -0.21,-5.77 3.16,-10.8 6.11,-15.48 5.38,-7.48 11.63,-14.36 18.66,-20.32 5.22,-4.47 10.12,-9.42 15.91,-13.15 6.4,3.78 11.94,8.9 18.38,12.67 2.17,1.77 5.88,2.82 5.88,6.16 0.58,8.76 1.63,17.49 2.27,26.25 -1.08,1.25 -2.63,1.86 -4.11,2.43 -12.46,4.57 -25.21,8.57 -38.38,10.43 -5.54,0.65 -11.22,0.84 -16.71,-0.31 m 84.06,47.06 c -6.64,-8.58 -9.61,-19.24 -12.57,-29.5 -2.06,-8.49 -4.19,-17.07 -4.66,-25.82 9.17,-3.27 17.74,-7.99 26.66,-11.78 5.47,2.3 10.63,5.34 16.17,7.51 3.35,1.76 7.36,2.43 10.24,4.99 -1.84,15.56 -5.44,31.11 -11.67,45.55 -2.95,6.18 -7.25,13.21 -14.54,14.53 -3.82,-0.17 -7.42,-2.41 -9.63,-5.48 m 3.56,10.34 c 4.47,2.54 10.48,1.71 14.25,-1.74 3.33,-3.02 6.54,-6.3 8.65,-10.32 7.93,-14.19 11.92,-30.21 14.76,-46.1 0.2,-1.61 0.39,-3.23 0.59,-4.85 2.37,0.71 4.73,1.47 7.06,2.32 13.14,4.71 26.75,8.35 40.67,9.63 7.84,0.49 16.74,0.49 23.06,-4.9 4.97,-3.65 4.98,-10.87 3.05,-16.17 C 104.35,77.4 95.11,67.39 85.76,58.21 80.94,53.69 76.2,49.06 70.98,45 c -0.77,-0.74 -2.15,-1.46 -1.69,-2.75 2.21,-2.38 5.03,-4.11 7.34,-6.4 5.69,-5.7 12.05,-10.72 17.08,-17.07 8.35,-9.61 18.08,-20.98 16.03,-34.67 -3.01,-5.25 -8.76,-8.52 -14.71,-9.12 -15.12,-1.68 -30.13,2.22 -44.52,6.45 -4.81,1.56 -9.46,3.69 -14.45,4.61 -1.83,-1.25 -1.25,-4.27 -1.92,-6.28 -3.23,-16.16 -7.06,-32.75 -16.09,-46.79 -3.79,-5.18 -8.94,-11.06 -15.94,-10.85 -6.35,0.49 -10.92,5.75 -14.52,10.49 -4.54,6.66 -7.31,14.3 -10.25,21.75 -3.51,10.33 -5.33,21.11 -7.53,31.77 -6.5,-1.43 -12.59,-4.2 -19.02,-5.88 -13.49,-3.68 -27.58,-7.08 -41.64,-5.06 -5.76,0.88 -12.15,4.21 -13.57,10.33 -1.53,6.97 1.78,13.81 5.27,19.65 9.44,14.76 22.99,26.2 36.09,37.59 -12.98,10.66 -25.55,22.18 -34.98,36.19 -4.36,6.66 -8.48,14.84 -6.04,22.96 3.46,5.06 9.15,8.32 15.27,8.74 12.05,1.28 23.94,-1.61 35.63,-4.15 7.72,-2.2 15.31,-4.83 22.9,-7.43 3.13,16.65 6.63,33.54 14.51,48.7 3.02,5.65 7.03,11.01 12.72,14.2" /></g><g
           transform="translate(502.3735,725.2611)"
           id="g120"><path
             id="path122"
             style="fill:#f8f00e;fill-opacity:1;fill-rule:nonzero;stroke:none"
             d="m 0,0 c 3.284,2.699 7.783,2.733 11.821,2.654 4.217,-0.033 8.817,-1.518 11.089,-5.308 2.575,-4.735 4.69,-10.223 3.43,-15.678 -2.058,-6.895 -8.772,-11.55 -15.723,-12.383 -3.97,0.112 -7.524,2.194 -11.112,3.644 -6.736,2.947 -6.748,11.461 -5.848,17.646 C -6.073,-5.342 -2.98,-2.418 0,0" /></g><g
           transform="translate(938.5449,718.0077)"
           id="g124"><path
             id="path126"
             style="fill:#feffff;fill-opacity:1;fill-rule:nonzero;stroke:none"
             d="m 0,0 c 2.43,-4.49 5.409,-8.93 6.43,-13.99 -1.451,-4.14 -3.75,-8.02 -6.01,-11.78 -3.011,1.21 -3.271,5.4 -4.391,8.13 C -4.37,-11.54 -1.641,-5.77 0,0" /></g><g
           transform="translate(58.2646,593.3075)"
           id="g128"><path
             id="path130"
             style="fill:#fbfefd;fill-opacity:1;fill-rule:nonzero;stroke:none"
             d="M 0,0 11.511,-1.142 9.1,-19.5 53.135,-24.997 51.11,-40.3 7.051,-34.604 4.73,-51.02 -5.92,-50.57 Z" /></g><g
           transform="translate(578.1992,540.6996)"
           id="g132"><path
             id="path134"
             style="fill:#ffffff;fill-opacity:1;fill-rule:nonzero;stroke:none"
             d="M 0,0 C -0.891,-0.035 -1.782,-0.095 -2.674,-0.187 -1.783,-0.114 -0.892,-0.051 0,0" /></g><g
           transform="translate(574.8145,540.4476)"
           id="g136"><path
             id="path138"
             style="fill:#ffffff;fill-opacity:1;fill-rule:nonzero;stroke:none"
             d="M 0,0 C 0.237,0.029 0.474,0.041 0.711,0.065 0.211,0.024 -0.29,-0.011 -0.79,-0.06 Z" /></g><g
           transform="translate(277.1045,476.308)"
           id="g140"><path
             id="path142"
             style="fill:#ffffff;fill-opacity:1;fill-rule:nonzero;stroke:none"
             d="m 0,0 c 27,0.16 54,-0.101 81,0.29 26,0.08 51.99,0.93 78,0.73 17.33,0.15 35.28,-0.63 51.35,-7.831 8.87,-3.889 16.54,-9.979 23.42,-16.729 5.55,2.7 9.96,7.12 15.05,10.529 4.23,2.981 8.9,5.25 13.6,7.391 5.87,2.74 12.35,3.599 18.55,5.3 20.3,1.889 40.69,1 61.04,1.08 16.94,-0.5 33.91,0.019 50.83,-1.031 19.38,-0.469 38.77,-0.209 58.16,-0.389 22.72,0.08 45.46,-0.21 68.16,0.41 l 0.06,0.46 c 8.22,0.7 16.63,0.12 24.69,2.109 -2.28,5.691 -5.71,10.79 -8.23,16.361 -9.51,18.02 -18.67,36.24 -28.52,54.08 -5.88,-6.98 -15.66,-7.74 -24.15,-7.77 -10.32,-0.87 -20.67,-0.42 -31,-0.7 -12.69,-0.35 -25.33,0.8 -38.01,0.55 -31.66,0.01 -63.33,-0.02 -95,0.02 -5.965,-0.211 0,0 -22.11,-1.45 -4.58,-0.46 -9.17,-0.81 -13.75,-1.31 -3.53,-0.93 -7.04,-1.96 -10.56,-2.92 -6.21,-1.75 -11.57,-5.49 -16.72,-9.22 -5.72,-4.27 -10.58,-9.63 -14.41,-15.64 -2.64,-3.68 -4.39,-7.921 -7.13,-11.53 -2.03,3.42 -3.61,7.1 -5.77,10.45 -6.55,8.39 -13.47,17.05 -23.26,21.81 -16.47,8.08 -35.24,9.27 -53.29,9.21 -43.01,-0.22 -86.04,-0.37 -129.05,0.61 -16.55,0.46 -33.12,0.51 -49.68,0.7 -5.5,0.18 -10.73,3.05 -13.19,8.09 C -51.55,51.07 -63.39,28.59 -75.15,6.069 -75.89,4.71 -76.58,3.33 -77.24,1.93 -76.33,1.8 -74.51,1.55 -73.6,1.42 -49.11,-0.431 -24.54,0.18 0,0" /></g><g
           transform="translate(831.5049,459.7074)"
           id="g144"><path
             id="path146"
             style="fill:#ffffff;fill-opacity:1;fill-rule:nonzero;stroke:none"
             d="M 0,0 C -0.851,1.37 -1.841,4.24 -3.881,2.79 -8.73,0.4 -14.04,-0.779 -19.45,-0.8 c -38.28,-2.05 -76.63,-1.229 -114.941,-1.11 -16.599,-0.14 -33.17,0.85 -49.759,0.721 -16.401,0.679 -32.83,0.599 -49.25,0.66 -11.741,-0.071 -23.51,0.3 -35.22,-0.75 -8.41,-0.511 -16.84,-1.75 -24.79,-4.611 -9.79,-4.099 -17.401,-11.839 -23.07,-20.639 -1.03,-1.42 -2.101,-2.811 -3.17,-4.2 -4.19,4.79 -7.52,10.319 -12.221,14.66 -2.809,2.59 -5.789,4.989 -8.96,7.13 -4.659,2.469 -9.639,4.33 -14.699,5.79 -1.87,0.179 -3.73,0.42 -5.591,0.67 -18.639,3.45 -37.71,1.019 -56.519,2.319 -22.58,-0.36 -45.171,0.381 -67.75,0.301 -8.59,0.099 -17.18,0.049 -25.76,0.399 -8.38,1.08 -16.84,0.511 -25.26,0.75 -8.43,-0.2 -16.91,0.82 -25.3,-0.46 -5.331,-0.069 -10.65,-0.069 -15.98,-0.29 -16.23,0.55 -32.5,0.271 -48.74,0.601 -4.47,0.099 -8.68,1.779 -12.56,3.88 -1.51,-3.161 -3.071,-6.3 -4.62,-9.441 -2.451,-3.97 -4.63,-8.1 -6.471,-12.39 5.911,-0.82 11.881,-1.25 17.851,-1.169 3.669,-0.371 7.35,-0.63 11.04,-0.88 30.5,-0.811 61.01,-0.311 91.51,-0.611 38.76,0.3 77.53,0.2 116.28,0.991 15.379,-0.101 31.02,0.759 46.089,-2.931 6.96,-1.86 14.161,-4.48 19.071,-10.01 5.4,-5.769 6.6,-13.979 7.889,-21.46 11.651,-0.109 23.31,0.05 34.961,-0.08 2.16,-0.029 4.32,0.181 6.45,0.521 0.359,5.849 0.64,11.929 3.089,17.349 3.77,7.26 11.861,10.481 19.22,12.851 13,3.54 26.561,3.599 39.931,4.04 1.34,0.149 2.679,0.349 4.03,0.539 23.859,0.32 47.73,0.011 71.59,0.04 2.62,-0.26 5.26,-0.48 7.91,-0.569 45.579,-0.76 91.17,-1.731 136.75,-0.79 8.23,0.5 16.56,0.399 24.67,2.109 C 5.68,-11.16 2.739,-5.63 0,0" /></g><g
           transform="translate(708.2646,363.268)"
           id="g148"><path
             id="path150"
             style="fill:#ffffff;fill-opacity:1;fill-rule:nonzero;stroke:none"
             d="m 0,0 c -3.72,2.569 -8.351,3.1 -12.561,4.47 -2.089,0.59 -4.96,1.55 -4.54,4.28 0.731,3.279 5.151,3.05 7.79,2.93 2.661,0.03 4,-2.38 4.861,-4.54 2.42,-0.1 4.849,-0.08 7.28,0 -0.62,3.33 -1.851,6.92 -5.04,8.589 -4.931,2.63 -11.19,2.661 -16.28,0.451 C -24.09,13.939 -25.78,5.75 -21.561,1.439 -16.7,-3.58 -8.83,-2.44 -3.42,-6.5 c 0.819,-4.811 -4.48,-7.92 -8.73,-6.79 -3.57,0.54 -5.241,4.05 -6.951,6.78 -2.029,-0.2 -4.049,-0.45 -6.049,-0.75 0.32,-5.57 4.44,-10.83 10.16,-11.48 4.969,-0.27 10.84,-1.1 14.86,2.54 C 4.84,-12.431 5.06,-3.78 0,0" /></g><g
           transform="translate(227.3447,380.0375)"
           id="g152"><path
             id="path154"
             style="fill:#ffffff;fill-opacity:1;fill-rule:nonzero;stroke:none"
             d="m 0,0 c 0,-1.85 0.01,-3.7 0.01,-5.56 3.53,-0.02 7.07,-0.08 10.6,-0.21 -0.12,-9.86 0.14,-19.72 -0.17,-29.57 2.43,0.01 4.86,0.03 7.29,0 -0.27,9.96 -0.53,19.96 0.18,29.901 3.41,-0.111 6.84,-0.09 10.25,0.099 -0.02,1.78 -0.05,3.55 -0.08,5.311 C 18.73,0.34 9.35,0.49 0,0" /></g><g
           transform="translate(288.8047,380.1479)"
           id="g156"><path
             id="path158"
             style="fill:#ffffff;fill-opacity:1;fill-rule:nonzero;stroke:none"
             d="m 0,0 c -2.32,0.03 -4.63,0.03 -6.95,0.02 -0.23,-4.6 -0.26,-9.22 -0.11,-13.831 -4.63,-0.139 -9.27,-0.099 -13.9,-0.029 -0.26,4.36 -0.42,8.73 0.06,13.069 l 0.1,1 c -2.53,-0.099 -5.05,-0.219 -7.57,-0.389 -0.36,-11.7 0.33,-23.43 -0.34,-35.12 2.49,-0.12 4.99,-0.14 7.49,-0.2 -0.1,5.16 0.01,10.33 -0.08,15.49 4.5,0.4 9.02,0.48 13.52,0.01 l 0.75,-0.07 c -0.21,-5.11 -0.2,-10.23 0.01,-15.35 2.4,-0.09 4.82,-0.09 7.21,0.299 C -0.22,-23.41 0.14,-11.7 0,0" /></g><g
           transform="translate(305.7847,359.0473)"
           id="g160"><path
             id="path162"
             style="fill:#ffffff;fill-opacity:1;fill-rule:nonzero;stroke:none"
             d="M 0,0 C 1.05,4.5 2.85,8.761 4.67,12.98 5.99,8.62 7.79,4.421 9.24,0.101 6.17,-0.239 3.08,-0.229 0,0 M 0.65,20.931 C -3.75,9.25 -8.53,-2.279 -12.8,-14.01 c 2.36,-0.319 4.75,-0.349 7.13,-0.3 1.02,2.571 2.06,5.121 3.03,7.701 4.62,0.139 9.26,0.46 13.86,-0.09 2.4,-1.691 1.79,-5.75 4.16,-7.551 2.33,-0.289 4.68,-0.06 7.01,0.101 C 17.86,-2.289 13.2,9.53 8.21,21.19 5.68,21.16 3.17,21.07 0.65,20.931" /></g><g
           transform="translate(332.3745,380.0873)"
           id="g164"><path
             id="path166"
             style="fill:#ffffff;fill-opacity:1;fill-rule:nonzero;stroke:none"
             d="m 0,0 c -0.28,-11.739 0.2,-23.489 -0.25,-35.229 2.37,-0.151 4.74,-0.151 7.11,-0.05 0.2,11.849 0.16,23.71 0,35.559 C 4.57,0.181 2.28,0.11 0,0" /></g><g
           transform="translate(380.1616,372.7182)"
           id="g168"><path
             id="path170"
             style="fill:#ffffff;fill-opacity:1;fill-rule:nonzero;stroke:none"
             d="m 0,0 c 1.417,-1.865 1.833,-4.48 -0.697,-5.971 -3.83,-1.38 -8.01,-0.939 -11.97,-0.509 0.02,2.629 0,5.25 -0.04,7.86 C -8.297,1.909 -3.347,2.298 0,0 m -1.397,-20.29 c -2.72,-0.78 -7.602,-0.518 -10.372,-0.397 -0.23,2.07 -0.152,4.965 0.134,6.851 3.17,0.65 7.798,0.256 10.968,-0.475 2.2,-1.46 1.78,-5.089 -0.73,-5.979 m 5.61,11.38 c 2.45,2.399 4.77,5.63 3.92,9.25 -0.62,4.3 -5.08,7 -9.16,7.109 -6.23,0.28 -12.49,0.42 -18.71,-0.09 -0.15,-11.729 -0.02,-23.45 -0.09,-35.179 6.92,-0.37 13.88,-0.41 20.79,-0.01 6.62,0.47 11,8.38 8.04,14.3 -1.19,1.92 -3.08,3.219 -4.79,4.62" /></g><g
           transform="translate(396.3247,380.1879)"
           id="g172"><path
             id="path174"
             style="fill:#ffffff;fill-opacity:1;fill-rule:nonzero;stroke:none"
             d="m 0,0 c -0.25,-10.36 0,-20.74 -0.16,-31.11 0.14,-1.61 -0.41,-3.92 1.63,-4.54 0.9,0.009 2.72,0.02 3.63,0.03 0.38,0.18 1.13,0.53 1.5,0.71 C 7.23,-23.3 6.9,-11.601 6.74,0.03 4.49,0.06 2.24,0.05 0,0" /></g><g
           transform="translate(432.3447,380.1381)"
           id="g176"><path
             id="path178"
             style="fill:#ffffff;fill-opacity:1;fill-rule:nonzero;stroke:none"
             d="m 0,0 c -0.25,-7.75 0.27,-15.511 -0.4,-23.24 -4.97,6.88 -8.92,14.42 -13.44,21.58 -1.65,2.769 -5.47,1.45 -8.12,1.66 -0.18,-11.811 0.24,-23.63 -0.25,-35.431 2.32,0.021 4.64,0.031 6.97,0.021 -0.47,7.53 -0.33,15.099 0.07,22.63 3.87,-5.04 6.93,-10.63 10.16,-16.09 1.28,-2.07 2.47,-4.221 4.06,-6.09 2.12,-1.07 4.71,-0.25 7.01,-0.381 0.2,11.861 0.27,23.721 0,35.57 C 4.03,0.149 2.02,0.08 0,0" /></g><g
           transform="translate(474.8047,380.018)"
           id="g180"><path
             id="path182"
             style="fill:#ffffff;fill-opacity:1;fill-rule:nonzero;stroke:none"
             d="m 0,0 c -2.33,0.109 -4.66,0.2 -6.99,0.25 -0.18,-4.62 -0.19,-9.25 -0.1,-13.88 -4.74,-0.11 -9.49,-0.15 -14.23,0.02 0.14,4.58 0.13,9.16 -0.12,13.73 -2.41,0.1 -4.82,0.17 -7.22,0.31 0.49,-11.97 0.01,-23.96 0.26,-35.94 2.45,0.09 4.92,0.119 7.38,0.02 l -0.02,0.67 c -0.23,5.049 -0.17,10.11 0.07,15.16 4.4,0.16 8.83,0.21 13.23,-0.21 L -7,-19.94 c -0.22,-5.09 -0.19,-10.19 0,-15.29 2.37,-0.081 4.75,-0.06 7.13,0.08 L 0.1,-34.09 C -0.18,-22.721 0.09,-11.36 0,0" /></g><g
           transform="translate(517.7944,380.2973)"
           id="g184"><path
             id="path186"
             style="fill:#ffffff;fill-opacity:1;fill-rule:nonzero;stroke:none"
             d="m 0,0 c -0.49,-8.46 0.3,-16.96 -0.51,-25.399 -0.98,-7.43 -13.36,-5.991 -14.02,1.049 0.12,8.14 0.27,16.281 -0.1,24.411 -2.32,0 -4.64,-0.021 -6.95,-0.04 -0.19,-7.09 -0.08,-14.18 -0.08,-21.271 -0.03,-3.17 0.44,-6.399 2,-9.21 3.03,-5.819 10.34,-5.769 16.01,-5.35 5.1,0.13 9.83,4.46 10.14,9.611 C 7.21,-17.42 6.9,-8.59 6.81,0.211 4.53,0.091 2.26,0.051 0,0" /></g><g
           transform="translate(554.3545,380.1078)"
           id="g188"><path
             id="path190"
             style="fill:#ffffff;fill-opacity:1;fill-rule:nonzero;stroke:none"
             d="m 0,0 c -0.26,-7.71 0.13,-15.44 -0.38,-23.15 -5.02,6.839 -8.86,14.43 -13.49,21.51 -1.68,2.78 -5.43,1.56 -8.1,1.76 0.04,-11.76 -0.03,-23.52 -0.01,-35.28 2.24,-0.13 4.49,-0.24 6.75,-0.39 -0.45,7.56 -0.54,15.18 0.2,22.72 4.81,-7.32 9.75,-14.64 13.63,-22.51 2.48,-0.07 4.97,-0.06 7.46,0.01 C 6.19,-23.51 6.48,-11.65 5.93,0.15 3.95,0.12 1.97,0.07 0,0" /></g><g
           transform="translate(574.9648,380.2074)"
           id="g192"><path
             id="path194"
             style="fill:#ffffff;fill-opacity:1;fill-rule:nonzero;stroke:none"
             d="m 0,0 c -2.21,0.03 -4.41,0.04 -6.61,0.03 -0.26,-11.479 0.11,-22.96 -0.21,-34.44 l -0.031,-1.039 c 2.391,-0.021 4.79,-0.04 7.201,-0.111 C 0.05,-23.71 0.8,-11.83 0,0" /></g><g
           transform="translate(603.5645,380.0277)"
           id="g196"><path
             id="path198"
             style="fill:#ffffff;fill-opacity:1;fill-rule:nonzero;stroke:none"
             d="m 0,0 c -2.97,-8.36 -4.82,-17.2 -8.87,-25.13 -3.27,8.25 -5.5,16.87 -8.79,25.11 -2.54,0.15 -5.08,0.24 -7.61,0.27 3.78,-11.43 8.24,-22.64 11.81,-34.14 2,-2.7 6.02,-1.04 8.89,-1.26 C -1.21,-23.2 3.771,-11.76 7.49,0.08 4.99,0.16 2.49,0.12 0,0" /></g><g
           transform="translate(622.3447,350.4975)"
           id="g200"><path
             id="path202"
             style="fill:#ffffff;fill-opacity:1;fill-rule:nonzero;stroke:none"
             d="m 0,0 c -0.05,3.25 -0.061,6.5 -0.05,9.75 5.9,0.271 11.8,0.15 17.71,0.19 0.09,1.911 0.18,3.81 0.26,5.71 -5.981,0.25 -11.97,0.15 -17.95,0.18 -0.01,2.65 -0.02,5.3 -0.04,7.931 6.509,0.309 13.02,0.109 19.53,0.119 0.03,1.91 0.09,3.82 0.09,5.721 C 10.74,29.83 1.899,30.021 -6.9,29.57 -7.15,17.851 -6.61,6.12 -7.15,-5.58 1.87,-5.96 10.93,-5.939 19.96,-5.62 19.88,-3.779 19.8,-1.95 19.729,-0.13 13.149,0.221 6.569,0.08 0,0" /></g><g
           transform="translate(656.1348,365.3481)"
           id="g204"><path
             id="path206"
             style="fill:#ffffff;fill-opacity:1;fill-rule:nonzero;stroke:none"
             d="M 0,0 C -0.21,2.96 -0.221,5.939 -0.08,8.89 3.85,8.93 7.89,9.52 11.77,8.6 15.76,7.649 15.12,0.149 10.83,0.14 7.22,-0.181 3.6,0.08 0,0 m 13.22,-4.9 c 2.74,1.12 6.009,2.07 7.429,4.94 C 23.54,5.17 21.06,13.39 14.79,14.38 7.58,15.399 0.26,14.939 -6.98,14.819 -7.4,3.06 -7.32,-8.721 -7.141,-20.49 c 2.411,-0.08 4.83,-0.151 7.261,-0.26 l -0.08,1.17 c -0.42,4.74 -0.38,9.519 0.12,14.25 2.449,-0.521 5.46,-0.351 7.19,-2.521 3.36,-3.83 6.129,-8.17 8.42,-12.719 2.82,-0.12 5.65,-0.111 8.48,0.099 l -0.46,0.861 c -2.84,5.349 -6.221,10.46 -10.57,14.71" /></g><g
           transform="translate(724.7744,380.1381)"
           id="g208"><path
             id="path210"
             style="fill:#ffffff;fill-opacity:1;fill-rule:nonzero;stroke:none"
             d="M 0,0 C -2.31,0.1 -4.61,0.159 -6.9,0.199 -7.3,-11.75 -7.04,-23.71 -7.13,-35.67 c 2.38,0.18 4.78,0.319 7.18,0.46 C -0.03,-23.471 0.05,-11.73 0,0" /></g><g
           transform="translate(729.4746,380.3979)"
           id="g212"><path
             id="path214"
             style="fill:#ffffff;fill-opacity:1;fill-rule:nonzero;stroke:none"
             d="m 0,0 c -0.04,-1.98 -0.061,-3.96 -0.08,-5.95 3.229,-0.02 6.479,-0.071 9.72,-0.26 l 0.78,-0.05 c 0.05,-9.77 -0.25,-19.54 0.059,-29.31 2.361,-0.09 4.741,-0.11 7.121,-0.12 -0.371,9.839 -0.23,19.7 -0.18,29.55 3.6,0.1 7.2,0.18 10.8,0.24 -0.02,1.81 -0.02,3.62 0.009,5.41 C 18.85,0.47 9.399,-0.521 0,0" /></g><g
           transform="translate(791.2148,380.058)"
           id="g216"><path
             id="path218"
             style="fill:#ffffff;fill-opacity:1;fill-rule:nonzero;stroke:none"
             d="m 0,0 c -2.811,-0.021 -6.86,1.64 -8.601,-1.42 -2.46,-4.06 -4.599,-8.31 -7.069,-12.37 -1.69,2.42 -3.16,4.97 -4.56,7.55 -1.48,2.24 -2.64,4.969 -5.01,6.37 -2.29,0.32 -4.611,0.099 -6.89,0 3.48,-6.46 7.76,-12.45 11.4,-18.83 2.33,-5.151 0.52,-11.151 1.169,-16.67 2.361,-0.04 4.741,-0.101 7.121,-0.21 0.69,6.45 -1.77,13.819 2.589,19.35 C -6.62,-10.79 -2.601,-5.8 0,0" /></g><g
           transform="translate(643.5742,226.7182)"
           id="g220"><path
             id="path222"
             style="fill:#f8f7f7;fill-opacity:1;fill-rule:nonzero;stroke:none"
             d="m 0,0 c -10.42,-5.82 -22.76,-6.431 -34.42,-5.87 -11.28,0.569 -23.03,3.949 -31.189,12.13 -4.401,4.17 -7.54,9.899 -8.011,16 -1.449,7.29 -0.93,14.75 -1.029,22.13 0.069,11.08 -0.121,22.16 0.049,33.24 9.47,0.149 18.98,0.43 28.44,-0.17 1.27,0.189 2.551,0.33 3.85,0.43 1.34,-0.1 2.69,-0.201 4.05,-0.311 0.16,-13.72 -0.11,-27.449 0.06,-41.189 0.03,-2.43 -0.05,-4.87 -0.39,-7.3 0.97,-2.721 1.28,-6.181 4.061,-7.761 3.989,-2.689 8.969,-1.47 13.189,-0.059 l 0.43,0.75 0.54,0.209 0.25,0.811 c 2.32,5.84 1.681,12.21 1.75,18.35 0,12.049 -0.04,24.089 -0.01,36.139 C -6.41,77.68 5.561,77.54 17.53,77.54 17.7,67.5 17.59,57.449 17.62,47.39 17.55,39.979 17.98,32.52 16.971,25.14 16.851,23.51 16.74,21.869 16.58,20.22 14.79,11.21 7.95,4.119 0,0 m 20.49,76.359 c 0.01,1.83 -1.139,3.781 -3.16,3.691 -6.25,0.59 -12.54,0.059 -18.8,0.17 -6.519,-0.04 -13.059,0.57 -19.55,-0.271 -0.64,-10.84 0.06,-21.71 -0.18,-32.559 -0.289,-6.701 1.12,-13.67 -1.19,-20.14 -1.139,-5.391 -10.66,-6.021 -11.599,-0.36 -0.311,1.059 -0.551,2.12 -0.7,3.189 -1.241,7.381 -0.401,14.881 -0.621,22.311 -0.21,9.179 0.51,18.389 -0.54,27.54 -9.19,0.82 -18.42,0.179 -27.62,0.439 -4.44,0 -8.969,0.481 -13.309,-0.67 -1.101,-6.359 -0.25,-12.88 -0.54,-19.309 -0.301,-11.771 0.71,-23.58 -0.441,-35.311 0.41,-7.069 2.96,-13.989 7.55,-19.42 4.01,-4.159 8.75,-7.649 14.05,-9.979 12.2,-5.66 26.051,-5.79 39.21,-4.701 11.131,1.89 22.461,6.121 30.11,14.791 4.68,4.959 6.91,11.65 7.7,18.32 -0.73,17.399 0.361,34.859 -0.37,52.269" /></g><g
           transform="translate(436.1445,304.2074)"
           id="g224"><path
             id="path226"
             style="fill:#ed1a23;fill-opacity:1;fill-rule:nonzero;stroke:none"
             d="m 0,0 c -25.16,0.051 -50.32,-0.12 -75.47,0.07 l -0.98,0.241 c 1.39,-8.811 0.31,-17.781 0.69,-26.661 6.59,-0.349 13.19,-0.08 19.79,-0.16 0.32,-18.179 0.01,-36.38 0.16,-54.57 11.91,-0.19 23.83,-0.029 35.74,-0.109 0.23,18.259 -0.15,36.54 0.21,54.799 6.74,-0.03 13.48,0.26 20.21,-0.28 C -0.39,-17.79 0.2,-8.88 0,0" /></g><g
           transform="translate(661.1943,274.1078)"
           id="g228"><path
             id="path230"
             style="fill:#ed1a23;fill-opacity:1;fill-rule:nonzero;stroke:none"
             d="m 0,0 c -0.03,10.06 0.08,20.11 -0.09,30.15 -11.97,0 -23.94,0.14 -35.91,-0.01 -0.03,-12.05 0.01,-24.09 0.01,-36.14 -0.07,-6.14 0.57,-12.51 -1.75,-18.35 l -0.25,-0.81 -0.54,-0.21 -0.43,-0.75 c -4.22,-1.41 -9.2,-2.63 -13.189,0.059 -2.781,1.581 -3.091,5.04 -4.061,7.761 0.34,2.43 0.42,4.87 0.39,7.3 -0.17,13.74 0.1,27.47 -0.06,41.189 -1.36,0.111 -2.71,0.211 -4.05,0.311 -1.299,-0.1 -2.58,-0.24 -3.85,-0.43 -9.46,0.6 -18.97,0.32 -28.44,0.17 -0.17,-11.08 0.02,-22.16 -0.05,-33.24 0.1,-7.38 -0.419,-14.84 1.03,-22.13 0.47,-6.1 3.61,-11.83 8.011,-16 8.159,-8.181 19.909,-11.56 31.189,-12.13 11.66,-0.56 24,0.05 34.42,5.87 7.95,4.119 14.79,11.21 16.58,20.22 0.16,1.649 0.27,3.29 0.391,4.92 C 0.36,-14.87 -0.07,-7.41 0,0" /></g><g
           transform="translate(497.8643,281.4076)"
           id="g232"><path
             id="path234"
             style="fill:#f5f8f9;fill-opacity:1;fill-rule:nonzero;stroke:none"
             d="M 0,0 C -0.01,-1.5 0,-3.01 0.02,-4.53 1.97,-4.16 6.48,-4.81 5.91,-1.649 5.09,0.811 2.013,0 0,0 M -3.74,3.51 C 0.548,3.615 6.703,5.073 8.983,0.253 9.986,-2.1 9.58,-5.02 7.39,-6.399 4.03,-8.36 -0.02,-7.8 -3.72,-7.689 -3.97,-3.95 -4,-0.22 -3.74,3.51" /></g><g
           transform="translate(416.2847,277.8178)"
           id="g236"><path
             id="path238"
             style="fill:#f8f7f7;fill-opacity:1;fill-rule:nonzero;stroke:none"
             d="m 0,0 c -0.36,-18.26 0.02,-36.54 -0.21,-54.8 -11.91,0.08 -23.83,-0.08 -35.74,0.11 -0.15,18.19 0.16,36.39 -0.16,54.57 -6.6,0.08 -13.2,-0.19 -19.79,0.16 -0.38,8.88 0.7,17.85 -0.69,26.66 l 0.98,-0.24 C -30.46,26.27 -5.3,26.44 19.86,26.39 20.06,17.51 19.47,8.6 20.21,-0.28 13.48,0.26 6.74,-0.03 0,0 m 23.68,29.979 c -27.82,0.061 -55.64,0.131 -83.46,-0.019 -0.07,-11.14 0.03,-22.28 -0.05,-33.42 6.62,-0.22 13.25,0.12 19.87,-0.15 0.4,-18.25 0.12,-36.51 0.13,-54.76 14.6,-0.31 29.2,0.11 43.8,-0.22 l -0.04,0.78 c -0.36,5.36 -0.19,10.73 -0.09,16.1 0.17,12.7 -0.12,25.41 0.15,38.12 6.55,0.18 13.11,0.069 19.67,0.05 0.34,11.17 0.5,22.36 0.02,33.519" /></g><g
           transform="translate(527.3545,224.8979)"
           id="g240"><path
             id="path242"
             style="fill:#f8f7f7;fill-opacity:1;fill-rule:nonzero;stroke:none"
             d="m 0,0 c -9.19,-2.57 -18.82,-2.05 -28.25,-2.09 -13.03,0.029 -26.05,-0.07 -39.08,0.05 0.06,27.18 -0.04,54.36 0.04,81.53 16.34,0.19 32.68,0.01 49.03,0.09 8,0.09 16.04,-1.358 23.11,-5.29 2.081,-1.453 5.86,-6.72 7.27,-9.67 2,-6.36 1.91,-14.58 -3.45,-19.33 -2.53,-2.7 -6.18,-3.78 -9.66,-4.61 0.58,-0.38 8.55,-2.84 11.52,-4.65 2.93,-2.5 5.68,-5.52 6.67,-9.36 1.59,-5.2 0.62,-10.74 -1.26,-15.72 C 12.57,5.149 6.32,1.68 0,0 m 20.46,28.89 c -1.62,5.48 -6.53,8.799 -10.83,12.08 2.51,2.65 5.18,5.36 6.37,8.9 2.73,8.16 0.78,18.02 -5.66,23.93 -5.97,5.639 -14.27,8.01 -22.28,8.72 -6.73,0.959 -13.54,0.66 -20.31,0.669 -12.93,-0.079 -25.87,0.181 -38.79,-0.109 -0.52,-29.33 0.2,-58.681 -0.39,-88.01 l -0.06,-0.96 c 12.74,0.18 25.49,0.01 38.24,0.06 8.09,0.09 16.23,-0.3 24.27,0.84 8.72,1.03 18.05,3.05 24.45,9.52 6.37,6.199 7.42,16.17 4.99,24.36" /></g><g
           transform="translate(494.5947,255.8481)"
           id="g244"><path
             id="path246"
             style="fill:#ed1a23;fill-opacity:1;fill-rule:nonzero;stroke:none"
             d="m 0,0 c 3.56,-0.07 7.16,0.229 10.71,-0.34 2.1,-0.85 5.17,-1.721 5.33,-4.44 0.18,-1.81 0.25,-3.91 -0.91,-5.45 C 10.67,-13.5 4.8,-12.9 -0.4,-12.62 -0.6,-9.051 -0.12,-0.48 0,0 M 10.66,19.16 C 7.3,17.199 3.25,17.76 -0.45,17.87 -0.7,21.609 -0.73,25.34 -0.47,29.069 3.95,29.208 10.161,30.237 12.202,25.961 13.118,23.338 12.85,20.54 10.66,19.16 m 39.3,-23.44 c -0.99,3.84 -3.74,6.86 -6.67,9.36 -2.97,1.81 -10.94,4.27 -11.52,4.649 3.48,0.831 7.13,1.911 9.66,4.611 5.36,4.75 5.45,12.97 3.45,19.33 -1.41,2.95 -4.506,7.597 -7.27,9.67 -6.566,3.68 -15.11,5.38 -23.11,5.29 -16.35,-0.08 -32.69,0.099 -49.03,-0.09 -0.08,-27.17 0.02,-54.351 -0.04,-81.53 13.03,-0.12 26.05,-0.021 39.08,-0.05 9.43,0.04 19.06,-0.481 28.25,2.09 6.32,1.679 12.57,5.149 15.94,10.95 1.88,4.979 2.85,10.52 1.26,15.72" /></g><g
           transform="translate(498.1343,252.7777)"
           id="g248"><path
             id="path250"
             style="fill:#edf8f8;fill-opacity:1;fill-rule:nonzero;stroke:none"
             d="m 0,0 c -0.27,-2.11 -0.28,-4.26 0.02,-6.39 2.52,0.25 5.23,-0.05 7.59,1.05 1.46,0.46 1.53,2.15 1.08,3.35 C 6.48,0.5 2.93,-0.31 0,0 M -4.194,3.098 C -0.634,3.027 3.62,3.3 7.17,2.73 9.27,1.88 12.34,1.01 12.5,-1.71 12.68,-3.52 12.75,-5.62 11.59,-7.16 7.13,-10.43 1.26,-9.83 -3.94,-9.55 -4.14,-5.98 -4.314,2.617 -4.194,3.098" /></g><g
           transform="translate(218.4546,207.4174)"
           id="g252"><path
             id="path254"
             style="fill:#6dc131;fill-opacity:1;fill-rule:nonzero;stroke:none"
             d="M 0,0 C 0.06,0.101 0.16,0.301 0.21,0.4 0.16,0.301 0.06,0.101 0,0" /></g><g
           transform="translate(213.8745,200.1977)"
           id="g256"><path
             id="path258"
             style="fill:#43a31d;fill-opacity:1;fill-rule:nonzero;stroke:none"
             d="M 0,0 C 0.39,1.78 1.39,3.29 2.93,4.26 3.42,2.16 2.2,0.22 0,0" /></g><g
           transform="translate(488.1646,197.9682)"
           id="g260"><path
             id="path262"
             style="fill:#2e3094;fill-opacity:1;fill-rule:nonzero;stroke:none"
             d="m 0,0 c 15.16,0.399 30.37,0.569 45.53,-0.171 0.09,-2.789 0.22,-5.579 0.44,-8.38 -0.48,-4.72 -0.59,-9.479 -0.11,-14.21 7.62,-0.889 14.97,-3.639 22.65,-3.87 2.57,4.441 3.83,9.5 5.96,14.16 2.07,1.05 4.09,2.511 6.47,2.761 4.07,-1.03 7.9,-2.99 12.16,-3.36 7.02,-1.54 13.44,-4.97 20.16,-7.441 1.699,-1 4.58,-1.389 5.18,-3.489 -0.69,-7.341 -6.64,-13.11 -7.12,-20.48 3.16,-3.64 7.85,-5.401 11.57,-8.39 2.52,-1.66 4.73,-4.2 7.84,-4.691 6.43,4.25 10.41,11.271 16.82,15.571 10.47,-10.601 21.35,-20.84 31.45,-31.8 -1.68,-2.08 -3.35,-4.181 -5.18,-6.141 -1.31,-1.319 -2.67,-2.58 -4.04,-3.849 -2.06,-1.811 -4.08,-3.691 -5.72,-5.901 -0.15,-0.229 -0.43,-0.689 -0.58,-0.92 0.81,-1.17 1.67,-2.309 2.54,-3.469 3.98,-4.76 6,-10.91 10.35,-15.37 2.79,-0.17 5.33,1.25 7.8,2.349 4.45,2.231 8.96,4.351 13.66,6 1.85,-3.869 3.55,-7.809 5.03,-11.849 3.53,-10.411 9.59,-19.89 12.02,-30.67 -6.45,-3.571 -14.05,-4.72 -19.93,-9.33 0.15,-1.89 0.31,-3.8 0.47,-5.72 -9.53,-3.691 -19.4,-6.351 -29.06,-9.651 -2.31,-0.729 -4.7,-1.139 -7.08,-1.54 -4.86,18.141 -11.68,36.101 -23.11,51.191 -13.3,19.33 -31.97,34.8 -53.1,44.889 -25.03,12.34 -53.88,16.161 -81.41,12.22 -34.9,-4.989 -67.33,-24.309 -88.96,-52.069 -11.28,-14.651 -20.07,-31.37 -24.59,-49.36 -0.69,-2.241 -1.03,-4.72 -2.47,-6.651 -4.03,0.07 -7.83,1.561 -11.59,2.83 -8.17,3 -16.66,5.04 -24.81,8.13 0.08,1.891 0.23,3.761 0.36,5.631 -6.37,3.34 -13.34,5.319 -19.75,8.569 0.43,1.75 0.86,3.491 1.5,5.16 5.08,12.331 10.06,24.71 15.5,36.89 7.09,-2.47 13.82,-5.92 21.12,-7.819 3.46,4.05 6.04,8.71 8.68,13.3 0.71,1.049 1.49,2.049 2.31,2.99 0.99,0.55 1.98,1.08 2.98,1.599 -0.44,6.13 -6.27,9.741 -11.13,12.42 -1.01,0.611 -2.03,1.191 -3.05,1.75 -0.65,1.651 -2.7,3.811 -0.95,5.401 2.7,3.29 6.31,5.689 9.16,8.859 5.53,6.131 11.37,11.981 17.31,17.711 1.52,1.06 3.26,3.409 5.26,2.05 6.26,-3.49 9.85,-10.13 15.44,-14.441 1.65,0.821 3.05,2.031 4.46,3.191 4.63,4.05 10.37,6.479 15.39,9.97 -1.87,7.559 -6.42,14.099 -8.4,21.629 6.79,3.701 14.23,5.941 21.24,9.17 6.92,2.561 13.27,6.97 20.77,7.71 3.58,-6.049 4.8,-13.229 8.68,-19.09 7.91,-0.189 15.6,2.571 23.46,3.38 C -0.15,-15.091 -0.63,-7.53 0,0" /></g><g
           transform="translate(562.6348,185.4975)"
           id="g264"><path
             id="path266"
             style="fill:#0a3e94;fill-opacity:1;fill-rule:nonzero;stroke:none"
             d="M 0,0 C 0.83,2.07 1.66,4.15 2.479,6.21 7.899,4.61 13.06,2.28 18.35,0.29 L 18.63,-0.6 C 14.37,-0.229 10.54,1.73 6.47,2.761 4.09,2.511 2.069,1.05 0,0" /></g><g
           transform="translate(867.0342,301.0678)"
           id="g268"><path
             id="path270"
             style="fill:#f3f210;fill-opacity:1;fill-rule:nonzero;stroke:none"
             d="M 0,0 C 3.86,-8.04 12.101,-12.69 20.13,-15.71 25.42,-8.3 28.36,0.87 27.59,10.01 27.311,18.78 22.221,26.34 17.2,33.16 12.7,38.49 8.181,44.03 2.45,48.07 -1.01,38.45 -3.81,28.36 -3.59,18.04 -3.79,11.87 -3.09,5.47 0,0" /></g><g
           transform="translate(871.9443,264.2875)"
           id="g272"><path
             id="path274"
             style="fill:#f3f210;fill-opacity:1;fill-rule:nonzero;stroke:none"
             d="M 0,0 C -1.99,-2.71 -2.77,-6.02 -3.16,-9.3 0.59,-7.859 3.55,-5 5.521,-1.54 9.36,4.91 14.061,10.87 17.08,17.78 15.49,18.15 13.9,18.5 12.33,18.851 7.891,12.78 4.34,6.13 0,0" /></g><g
           transform="translate(922.8047,439.7875)"
           id="g276"><path
             id="path278"
             style="fill:#f3f210;fill-opacity:1;fill-rule:nonzero;stroke:none"
             d="m 0,0 c 3.04,-4.04 5.569,-8.62 9.49,-11.89 1.579,-0.139 3.159,-0.21 4.77,-0.299 3.58,4.599 8.53,8 11.62,13 2.83,4.5 5.479,9.279 6.62,14.519 0.649,4.981 0.31,10.01 0.319,15.01 -0.029,6.69 -2.46,13.06 -5.359,18.98 -2.99,4.04 -4.58,9.201 -8.87,12.13 C 14.16,56.01 9.479,50.061 8.49,42.91 8.17,42.54 7.53,41.79 7.21,41.42 3.38,37.9 2.33,32.67 0.59,27.99 -1.67,21.771 -2.94,14.98 -1.58,8.41 -1.01,5.62 -0.42,2.83 0,0" /></g><g
           transform="translate(897.9443,408.9076)"
           id="g280"><path
             id="path282"
             style="fill:#f3f210;fill-opacity:1;fill-rule:nonzero;stroke:none"
             d="m 0,0 c 5.78,-9.34 16.92,-14.18 27.62,-14.49 3.12,10.27 3.95,22.04 -1.44,31.71 -2.18,3.37 -4.26,7.27 -8.09,9 -0.22,0.21 -0.66,0.64 -0.88,0.85 C 15.5,30.39 12.2,32.29 9.24,34.33 4.36,37.53 -0.5,40.9 -6.02,42.9 -6.97,37.71 -6.729,32.41 -6.66,27.17 -6.46,17.8 -4.84,8.16 0,0" /></g><g
           transform="translate(812.4541,198.4779)"
           id="g284"><path
             id="path286"
             style="fill:#f3f210;fill-opacity:1;fill-rule:nonzero;stroke:none"
             d="M 0,0 C 0.881,-0.681 2.16,-2.65 3.37,-1.33 11.351,4.84 18.591,13.29 19.931,23.63 21.65,37.62 17.051,51.58 10.61,63.83 8.75,62.29 7.021,60.609 5.591,58.67 0.631,52.08 -4.25,45.31 -7.369,37.62 -10.3,31.76 -10.31,25.02 -9.939,18.62 -9.09,11.43 -4.97,5.08 0,0" /></g><g
           transform="translate(769.085,163.4779)"
           id="g288"><path
             id="path290"
             style="fill:#f3f210;fill-opacity:1;fill-rule:nonzero;stroke:none"
             d="M 0,0 C 11.239,6.47 21.319,17.92 20.72,31.63 21.359,43.109 18.699,54.569 14.229,65.09 10.979,62.45 8.06,59.439 5.34,56.26 -2.051,48.24 -8.69,38.7 -10.171,27.649 -11.4,19.54 -8.58,11.31 -3.94,4.71 -2.711,3.13 -1.86,0.92 0,0" /></g><g
           transform="translate(934.6348,418.558)"
           id="g292"><path
             id="path294"
             style="fill:#f3f210;fill-opacity:1;fill-rule:nonzero;stroke:none"
             d="m 0,0 c -4.811,-7.5 -5.25,-16.891 -4.5,-25.521 9.29,-0.459 19.85,0.581 27.029,7.09 3.651,2.021 6.771,5.281 8.741,8.96 1.77,1.71 3.15,3.781 4.209,6 C 39.38,4.58 42.54,13.05 44.279,21.85 38.13,21.22 32.2,19.46 26.33,17.64 16.189,14.38 6.02,9.12 0,0" /></g><g
           transform="translate(900.3047,341.2475)"
           id="g296"><path
             id="path298"
             style="fill:#f3f210;fill-opacity:1;fill-rule:nonzero;stroke:none"
             d="M 0,0 C 0.47,-0.27 1.399,-0.79 1.859,-1.05 5.06,-2.22 8.33,-3.149 11.6,-4.109 c 0.79,2 1.58,3.989 2.37,5.979 3.74,9.08 4.639,19.74 -0.05,28.66 -1.191,3.1 -2.57,6.16 -4.71,8.72 -5.92,7.37 -12.91,13.91 -20.63,19.36 -2.431,-5.83 -3.25,-12.139 -4.08,-18.36 -0.88,-9.12 -0.851,-18.8 3.49,-27.13 C -9.5,7.58 -4.79,3.54 0,0" /></g><g
           transform="translate(919.3643,372.8773)"
           id="g300"><path
             id="path302"
             style="fill:#f3f210;fill-opacity:1;fill-rule:nonzero;stroke:none"
             d="m 0,0 c -1.41,-4.979 0.51,-10.02 1.24,-14.96 2.441,3.57 2.531,8.061 3.59,12.12 C 6.561,4.2 7.73,11.381 8.07,18.631 6.351,18.641 4.66,18.62 2.96,18.561 2.28,12.33 1.36,6.12 0,0" /></g><g
           transform="translate(940.6846,369.6381)"
           id="g304"><path
             id="path306"
             style="fill:#f3f210;fill-opacity:1;fill-rule:nonzero;stroke:none"
             d="m 0,0 c -4.99,-1.98 -10.44,-4.101 -13.65,-8.66 -4.35,-3.141 -7.14,-8.361 -8,-13.62 -2.06,-3.691 -2.34,-7.97 -2.65,-12.1 7.59,-2.08 15.8,-2.16 23.35,0.17 9.29,3 16.56,10.23 21.8,18.25 4,6.51 7.97,13.14 10.61,20.35 C 20.85,4.659 10.1,3.34 0,0" /></g><g
           transform="translate(740.9541,151.2377)"
           id="g308"><path
             id="path310"
             style="fill:#f3f210;fill-opacity:1;fill-rule:nonzero;stroke:none"
             d="M 0,0 C 5.11,13.99 2.87,29.43 -0.81,43.47 -8.8,39.43 -13.979,31.84 -21.08,26.64 -21.77,25.51 -22.46,24.37 -23.13,23.22 -26.29,17.73 -29.85,12.2 -30.659,5.771 -32.47,-4.05 -28.84,-14.1 -23.14,-22.03 -13.5,-17.25 -4.05,-10.37 0,0" /></g><g
           transform="translate(899.8047,313.4174)"
           id="g312"><path
             id="path314"
             style="fill:#f3f210;fill-opacity:1;fill-rule:nonzero;stroke:none"
             d="m 0,0 c -1.42,-2.569 -2.29,-5.399 -2.561,-8.33 2.061,1.54 4.051,3.181 5.88,4.99 2.601,2.391 3.521,5.931 5.011,9.01 2.09,5.131 4.72,10.091 5.98,15.52 -1.59,0.071 -3.18,0.14 -4.75,0.21 C 6.04,14.42 3.64,6.931 0,0" /></g><g
           transform="translate(908.5146,310.6977)"
           id="g316"><path
             id="path318"
             style="fill:#f3f210;fill-opacity:1;fill-rule:nonzero;stroke:none"
             d="m 0,0 c -9.88,-5.75 -15.99,-16.939 -16.19,-28.26 10.22,-2.63 21.96,-3.49 31.419,2.04 8.771,5 14.911,13.27 20.451,21.48 C 37.63,-1.4 40.359,1.82 40.3,5.9 26.729,6.43 12.229,6.85 0,0" /></g><g
           transform="translate(854.2041,237.0873)"
           id="g320"><path
             id="path322"
             style="fill:#f3f210;fill-opacity:1;fill-rule:nonzero;stroke:none"
             d="m 0,0 c 0.681,0.78 1.381,1.551 2.07,2.32 8.3,9.201 14.04,22.26 9.92,34.64 -0.429,2.37 -0.66,4.78 -0.769,7.181 C 5.91,51.311 3.28,60.261 -3.02,66.78 -8.159,60.091 -11.609,52.29 -14.51,44.421 -17.439,35.671 -19,25.71 -15.159,16.98 -12.27,9.73 -6.29,4.351 0,0" /></g><g
           transform="translate(742.0947,138.5678)"
           id="g324"><path
             id="path326"
             style="fill:#f3f210;fill-opacity:1;fill-rule:nonzero;stroke:none"
             d="m 0,0 c -7.3,-1.14 -13.46,-5.75 -18.74,-10.67 -0.981,-1.13 -2.481,-2.12 -2.64,-3.73 2.64,-4.08 6.4,-7.29 10.26,-10.18 7.38,-5.56 17.11,-7.4 26.14,-6.05 11.36,1.75 21.94,6.7 32,12.02 C 38.439,-11.31 28.819,-4.89 18.029,-1.4 12.24,0.57 6.02,0.49 0,0" /></g><g
           transform="translate(875.0342,255.2377)"
           id="g328"><path
             id="path330"
             style="fill:#f3f210;fill-opacity:1;fill-rule:nonzero;stroke:none"
             d="m 0,0 c -8.449,-4.16 -13.569,-12.66 -16.64,-21.25 8.58,-5.62 19.411,-8.06 29.48,-5.67 6.711,1.42 12.31,5.6 18.12,9.01 5.28,5.81 11.88,10.44 16.11,17.17 C 39.891,1.36 32.59,3.55 25.051,3.56 16.63,3.55 7.54,4.57 0,0" /></g><g
           transform="translate(840.3145,223.8979)"
           id="g332"><path
             id="path334"
             style="fill:#f3f210;fill-opacity:1;fill-rule:nonzero;stroke:none"
             d="M 0,0 C -3.3,-3.8 -7.65,-7.3 -8.2,-12.67 -1.06,-11.69 2.86,-5.19 7.33,-0.33 9.98,3 13.55,5.81 14.9,9.99 13.57,10.71 12.24,11.42 10.92,12.12 7.1,8.24 3.65,4.03 0,0" /></g><g
           transform="translate(829.9346,206.1576)"
           id="g336"><path
             id="path338"
             style="fill:#f3f210;fill-opacity:1;fill-rule:nonzero;stroke:none"
             d="m 0,0 c -3.73,-2.85 -6.88,-6.41 -9.7,-10.16 -0.81,-1.31 -2.21,-2.7 -1.66,-4.38 3.57,-3.27 7.95,-5.52 12.36,-7.45 6.43,-3.28 14.02,-3.71 20.939,-1.85 3.411,0.92 6.761,2.12 10.271,2.71 2.64,3 6.36,4.57 9.99,6.01 3.85,3.86 8.77,6.5 12.22,10.78 C 44.57,0.5 34.229,4.95 23.2,6.08 15.12,6.89 6.29,5.5 0,0" /></g><g
           transform="translate(801.9346,179.2475)"
           id="g340"><path
             id="path342"
             style="fill:#f3f210;fill-opacity:1;fill-rule:nonzero;stroke:none"
             d="m 0,0 c 2.82,1.34 4.89,3.8 7.31,5.7 2.4,2.24 6,4.071 5.74,7.861 C 11.58,14.16 9.8,16.41 8.31,14.75 2.24,9.641 -3.85,4.561 -9.97,-0.479 -6.66,-0.649 -3.25,-0.81 0,0" /></g><g
           transform="translate(828.1641,169.0375)"
           id="g344"><path
             id="path346"
             style="fill:#f3f210;fill-opacity:1;fill-rule:nonzero;stroke:none"
             d="M 0,0 C -7.619,2.62 -14.96,6.34 -23.079,7.16 -28.96,7.88 -35.17,7.29 -40.39,4.3 -42.5,3.28 -44.43,1.931 -46.27,0.49 c -4.12,-2.71 -7.57,-6.29 -10.16,-10.48 6.771,-7.93 16.8,-13.35 27.351,-13.449 8.949,-0.13 17.47,3.239 25.3,7.29 4.989,2.719 9.989,5.509 14.42,9.109 C 7.7,-4.99 4.74,-2.979 1.771,-0.979 1.33,-0.74 0.44,-0.24 0,0" /></g><g
           transform="translate(737.3545,140.1977)"
           id="g348"><path
             id="path350"
             style="fill:#f3f210;fill-opacity:1;fill-rule:nonzero;stroke:none"
             d="m 0,0 c 5.15,1.54 11.02,0.84 15.56,4.12 5.97,3.91 12.34,7.2 18.02,11.55 -1.14,1.69 -2.22,3.41 -3.28,5.12 C 22.3,16.85 15.07,11.54 7.08,7.55 3.72,6.14 2.03,2.8 0,0" /></g><g
           transform="translate(657.9443,114.1879)"
           id="g352"><path
             id="path354"
             style="fill:#f3f210;fill-opacity:1;fill-rule:nonzero;stroke:none"
             d="M 0,0 C -2.06,-1.811 -4.08,-3.69 -5.72,-5.9 -2.68,-7.061 0.49,-9.36 3.87,-8 22.54,-2.601 41.18,3.39 58.72,11.84 57.51,13.83 56.29,15.8 55.07,17.78 37.03,11 19.05,3.43 0,0" /></g><g
           transform="translate(157.1045,258.1674)"
           id="g356"><path
             id="path358"
             style="fill:#f3f210;fill-opacity:1;fill-rule:nonzero;stroke:none"
             d="m 0,0 c 1.84,-8.08 6.78,-14.979 12.33,-20.96 8.29,4.431 15.06,12.301 17.11,21.601 1.65,7.189 -0.08,14.549 -1.26,21.67 -0.35,0.179 -1.05,0.54 -1.4,0.719 -1.11,5.35 -3.6,10.45 -6.7,14.91 -0.82,2.991 -2.48,5.621 -4.29,8.09 C 10.9,40.301 7.25,33.601 4.06,26.811 0.17,18.551 -2.12,9.061 0,0" /></g><g
           transform="translate(172.9243,236.0375)"
           id="g360"><path
             id="path362"
             style="fill:#f3f210;fill-opacity:1;fill-rule:nonzero;stroke:none"
             d="m 0,0 c -1.24,-0.67 -2.5,-1.319 -3.65,-2.16 0.04,-3.18 3.08,-5.34 4.82,-7.75 5.49,-5.529 9.55,-13.81 18.06,-14.98 -1.13,5.69 -5.71,9.5 -9.34,13.64 C 6.51,-7.569 3.4,-3.649 0,0" /></g><g
           transform="translate(88.0747,430.058)"
           id="g364"><path
             id="path366"
             style="fill:#f3f210;fill-opacity:1;fill-rule:nonzero;stroke:none"
             d="M 0,0 C 1.04,-1.04 2.77,-0.61 3.6,0.47 10.98,7.779 14.93,18.72 12.98,29.04 10.5,43.85 2.31,56.859 -5.98,69.08 -13.39,57.56 -19.38,44.05 -17.81,30.04 -16.84,17.92 -8.95,7.649 0,0" /></g><g
           transform="translate(100.2744,425.3773)"
           id="g368"><path
             id="path370"
             style="fill:#f3f210;fill-opacity:1;fill-rule:nonzero;stroke:none"
             d="m 0,0 c -0.94,-0.96 -1.86,-2.01 -2.23,-3.34 -3.27,-8.92 -2.39,-18.809 0.51,-27.7 11.19,0.431 22.96,5.79 28.33,16.04 6.65,12.71 6.71,27.74 5.12,41.66 C 24.34,23.12 17.27,18.811 10.91,13.641 7.3,10.511 3.32,7.381 1.54,2.78 1.26,2.57 0.69,2.16 0.41,1.95 0.31,1.46 0.1,0.49 0,0" /></g><g
           transform="translate(66.6846,399.6576)"
           id="g372"><path
             id="path374"
             style="fill:#f3f210;fill-opacity:1;fill-rule:nonzero;stroke:none"
             d="m 0,0 c 7.86,-5.67 17.9,-7.3 27.39,-6.649 0.47,7.199 0.28,14.71 -2.66,21.42 -3.17,7.629 -9.64,13.419 -16.94,17.04 -9.13,4.54 -19.09,7.759 -29.26,8.659 1.17,-6.56 3.43,-12.86 5.94,-19.01 C -12.09,13.28 -7.5,5.101 0,0" /></g><g
           transform="translate(165.7144,233.9779)"
           id="g376"><path
             id="path378"
             style="fill:#f3f210;fill-opacity:1;fill-rule:nonzero;stroke:none"
             d="m 0,0 c -3.26,8.439 -8.1,17.09 -16.56,21.22 -9.45,5.429 -20.71,4.389 -31.12,3.62 -1.22,-0.33 -2.44,-0.66 -3.67,-0.95 -4.15,-1.031 -8.28,-2.11 -12.38,-3.35 2.08,-3.931 5.46,-6.87 8.56,-9.971 C -47.82,3.54 -39.54,-3.16 -29.5,-5.76 -19.42,-7.96 -8.6,-5.59 0,0" /></g><g
           transform="translate(252.2246,159.058)"
           id="g380"><path
             id="path382"
             style="fill:#f3f210;fill-opacity:1;fill-rule:nonzero;stroke:none"
             d="m 0,0 c -5.95,8.35 -14.58,15.89 -25.15,17.06 -10.16,1.37 -19.7,-3.031 -29.02,-6.34 -0.44,-0.14 -1.32,-0.43 -1.75,-0.58 -3.34,-2.63 -6.99,-4.821 -10.5,-7.201 7.64,-6.729 17.4,-10.149 26.33,-14.75 6.99,-1.269 14.26,-2.45 21.2,-0.279 C -11.59,-10.05 -5.12,-5.5 0,0" /></g><g
           transform="translate(127.1147,392.9076)"
           id="g384"><path
             id="path386"
             style="fill:#f3f210;fill-opacity:1;fill-rule:nonzero;stroke:none"
             d="m 0,0 c -7.96,-6.43 -15.2,-14.37 -18.76,-24.11 -3.78,-10.43 -0.92,-21.97 4.03,-31.51 5.99,1.84 11.99,4.3 16.6,8.69 1.11,0.71 2.25,1.35 3.37,2.031 0.2,0.269 0.6,0.799 0.79,1.069 2.4,5.19 5.2,10.36 5.93,16.11 C 13.58,-16.26 11.01,-4.85 8.98,6.37 8.27,6.41 6.84,6.49 6.13,6.53 4.23,4.23 2.19,2.04 0,0" /></g><g
           transform="translate(96.7144,391.3979)"
           id="g388"><path
             id="path390"
             style="fill:#f3f210;fill-opacity:1;fill-rule:nonzero;stroke:none"
             d="M 0,0 C 0.26,-5.13 1.01,-10.22 1.27,-15.351 L 1.5,-16.18 c 2.33,-5.64 1.91,-12.14 5.28,-17.37 1.03,5.41 2.18,11.02 0.85,16.48 C 6.29,-11.32 5.48,-5.46 5,0.42 3.33,0.28 1.67,0.149 0,0" /></g><g
           transform="translate(107.4844,335.018)"
           id="g392"><path
             id="path394"
             style="fill:#f3f210;fill-opacity:1;fill-rule:nonzero;stroke:none"
             d="m 0,0 c -0.09,10.95 -4.16,22.59 -13.42,29.08 -12.21,8.5 -27.71,9.81 -42.15,9.97 2.36,-6.71 6.18,-12.74 9.23,-19.13 0.22,-0.42 0.67,-1.26 0.89,-1.691 2.37,-2.45 4.72,-4.919 7.06,-7.399 C -35.62,7.67 -32.32,4.96 -28.6,3 -20.07,-2.25 -9.48,-1.971 0,0" /></g><g
           transform="translate(131.1543,297.9076)"
           id="g396"><path
             id="path398"
             style="fill:#f3f210;fill-opacity:1;fill-rule:nonzero;stroke:none"
             d="m 0,0 c 0.62,-4.61 3.38,-8.55 5.42,-12.63 5.64,2.11 11.84,4.68 15.4,9.74 5.3,3.28 7.26,9.93 8.53,15.69 1.62,13.15 -1.04,26.71 -6.24,38.801 C 13.84,43.57 5.19,34.26 0.28,22.87 -2.51,15.7 -3.52,7.09 0,0" /></g><g
           transform="translate(110.0244,334.1479)"
           id="g400"><path
             id="path402"
             style="fill:#f3f210;fill-opacity:1;fill-rule:nonzero;stroke:none"
             d="m 0,0 c 1.77,-6.73 5.13,-12.92 7.71,-19.37 1.53,-4.28 5.57,-6.72 8.76,-9.651 -0.05,2.351 -0.54,4.661 -1.6,6.761 C 11.3,-14.65 7.99,-6.93 4.75,0.83 3.17,0.57 1.58,0.3 0,0" /></g><g
           transform="translate(110.0444,280.1977)"
           id="g404"><path
             id="path406"
             style="fill:#f3f210;fill-opacity:1;fill-rule:nonzero;stroke:none"
             d="m 0,0 c 7.41,-0.54 14.91,-0.03 22.03,2.17 -0.11,1.29 -0.21,2.57 -0.38,3.84 -0.38,1.36 -0.81,2.7 -1.27,4.02 -1.27,4.42 -2.67,8.96 -5.59,12.6 -3.34,4.42 -8.06,7.44 -12.83,10.09 -0.49,0.27 -1.45,0.81 -1.94,1.08 -11.81,2.98 -24.06,4.11 -36.2,2.81 1.34,-3.26 2.73,-6.5 4.13,-9.74 2.25,-1.9 3.91,-4.34 5.03,-7.059 2.86,-2.801 5.46,-5.861 8.23,-8.761 C -14.55,6.64 -9.05,3.76 -3.68,0.95 -2.46,0.64 -1.22,0.34 0,0" /></g><g
           transform="translate(275.0747,139.1879)"
           id="g408"><path
             id="path410"
             style="fill:#f3f210;fill-opacity:1;fill-rule:nonzero;stroke:none"
             d="m 0,0 c -15.26,-0.811 -28.68,-9.63 -40.03,-19.2 4.28,-2.59 8.85,-4.611 13.32,-6.83 10.57,-4.861 22.69,-7.611 34.14,-4.4 7.69,1.869 13.78,7.25 19.24,12.69 0.61,1.19 1.16,2.389 1.73,3.57 C 21.1,-6.28 11.23,0.609 0,0" /></g><g
           transform="translate(139.9546,283.1479)"
           id="g412"><path
             id="path414"
             style="fill:#f3f210;fill-opacity:1;fill-rule:nonzero;stroke:none"
             d="m 0,0 c -1.62,-0.38 -3.24,-0.78 -4.85,-1.2 3.38,-7.49 8.46,-14.08 12.78,-21.06 1.54,-2.841 4.22,-4.7 7.17,-5.9 -0.29,3.23 -0.83,6.57 -2.86,9.2 C 7.84,-12.851 4.12,-6.29 0,0" /></g><g
           transform="translate(208.9946,196.3178)"
           id="g416"><path
             id="path418"
             style="fill:#f3f210;fill-opacity:1;fill-rule:nonzero;stroke:none"
             d="m 0,0 c 1.2,0.99 2.4,1.97 3.63,2.91 0.31,0.24 0.94,0.73 1.25,0.97 0.39,1.78 1.39,3.29 2.93,4.26 0.56,0.99 1.11,1.98 1.65,2.96 0.06,0.1 0.16,0.3 0.21,0.4 0.71,1.41 1.39,2.82 2.09,4.2 l 0.23,0.279 0.04,0.371 c 0.76,5.09 1.18,10.3 0.27,15.4 C 11.14,38.65 7.81,44.94 4.13,50.8 0.58,56.26 -3.23,61.62 -7.97,66.12 -14.78,53.27 -19.32,38.44 -17.03,23.8 -15.05,13.89 -7.65,6.12 0,0" /></g><g
           transform="translate(236.8545,180.6078)"
           id="g420"><path
             id="path422"
             style="fill:#f3f210;fill-opacity:1;fill-rule:nonzero;stroke:none"
             d="m 0,0 0.48,-0.63 c 4.55,-6.77 10.34,-12.8 17.67,-16.56 1.27,1.28 2.55,2.54 3.73,3.89 0.2,0.39 0.6,1.17 0.8,1.56 3.79,6.67 7.08,14.3 5.65,22.15 C 26.16,24.66 16.28,36 6.51,45.92 5.7,46.9 4.94,47.91 4.19,48.9 3.21,47.16 2.22,45.42 1.32,43.62 0.83,41.1 0.23,38.59 -0.57,36.13 c -0.4,-1.5 -0.83,-3 -1.29,-4.5 C -2.56,25.61 -3.56,19.57 -3.07,13.49 -2.78,8.86 -1.38,4.4 0,0" /></g><g
           transform="translate(182.5244,211.518)"
           id="g424"><path
             id="path426"
             style="fill:#f3f210;fill-opacity:1;fill-rule:nonzero;stroke:none"
             d="m 0,0 c -14.4,2.3 -28.71,-2.76 -41.28,-9.391 0.52,-3.299 3.67,-4.939 6.04,-6.849 9.18,-6.52 19.32,-12.87 30.84,-13.691 10.33,-0.899 20.27,3.91 27.85,10.611 C 18.34,-10.45 10.49,-1.95 0,0" /></g><g
           transform="translate(208.9243,191.9174)"
           id="g428"><path
             id="path430"
             style="fill:#f3f210;fill-opacity:1;fill-rule:nonzero;stroke:none"
             d="m 0,0 c -0.06,-2.1 1.94,-3.39 3.24,-4.77 3.07,-2.58 5.91,-5.58 9.49,-7.48 3.84,-1.279 7.99,-1.3 11.85,-2.569 -1.05,1.319 -2.14,2.62 -3.28,3.859 C 14.43,-7.29 9.4,-1.149 3.13,3.36 2.06,2.28 0.95,1.21 0,0" /></g><g
           transform="translate(313.1147,141.1381)"
           id="g432"><path
             id="path434"
             style="fill:#f3f210;fill-opacity:1;fill-rule:nonzero;stroke:none"
             d="M 0,0 C 0.98,5.47 1.9,11.14 0.71,16.649 -0.86,23.52 -4.01,30.13 -9.1,35.1 c -0.64,1.28 -1.26,2.559 -1.91,3.82 -2.06,1.519 -3.87,3.319 -5.61,5.17 l -0.5,0.349 c -0.11,0.081 -0.34,0.231 -0.45,0.311 -2.93,2.04 -5.61,4.399 -8.21,6.819 -0.8,0.721 -1.62,1.42 -2.45,2.071 -0.39,0.08 -1.17,0.24 -1.55,0.32 C -30.83,48.3 -31.39,42.529 -33.13,37 -33.1,27.489 -33.87,17.38 -29.3,8.649 -26.17,1.649 -20.55,-4 -14.08,-8 c 2.26,-1.46 4.63,-2.761 7.04,-3.99 1.63,2.189 3.25,4.41 4.56,6.809 C -1.6,-3.48 -0.78,-1.74 0,0" /></g><g
           transform="translate(253.1147,155.9682)"
           id="g436"><path
             id="path438"
             style="fill:#f3f210;fill-opacity:1;fill-rule:nonzero;stroke:none"
             d="m 0,0 c 5.74,-4.37 11.98,-8 18.13,-11.74 4.48,-2.79 9.88,-2.96 14.93,-3.84 -1.73,3.699 -4.61,6.67 -8.34,8.359 C 24.2,-6.94 23.16,-6.37 22.63,-6.08 15.98,-2.69 10.02,1.89 3.29,5.13 2.19,3.43 1.09,1.71 0,0" /></g><g
           transform="translate(361.1343,115.1381)"
           id="g440"><path
             id="path442"
             style="fill:#f3f210;fill-opacity:1;fill-rule:nonzero;stroke:none"
             d="m 0,0 c -10.56,2.55 -20.91,5.949 -31.09,9.71 -6.46,2.019 -12.56,5.019 -19.03,7.019 -1.21,-1.95 -2.4,-3.919 -3.6,-5.889 6.41,-3.481 13.39,-5.67 20.09,-8.481 12.61,-5.12 25.78,-8.599 38.77,-12.54 l 0.02,0.87 C 5.17,-7.771 5.17,-6.24 5.17,-4.73 3.51,-3.08 1.76,-1.53 0,0" /></g><g
           transform="translate(426.2847,97.9174)"
           id="g444"><path
             id="path446"
             style="fill:#2d3194;fill-opacity:1;fill-rule:nonzero;stroke:none"
             d="m 0,0 c 32.76,28.71 80.65,38.38 122.18,25.561 22.989,-6.851 43.87,-20.3 59.92,-38.101 10.14,-11.8 18.67,-25.109 24.38,-39.619 2.26,-6.601 5.07,-13.231 5.2,-20.32 -7.21,-1.311 -14.17,-4.321 -21.58,-4.291 -4.96,22.27 -16.8,43.18 -34.261,57.98 C 137.66,-2.199 113.39,7.36 88.84,8.17 73.74,8.58 58.37,6.601 44.41,0.601 29.97,-5.489 16.48,-14.239 5.65,-25.64 c -5.99,-7.15 -11.91,-14.48 -16.12,-22.87 -5.23,-8.689 -7.78,-18.59 -11,-28.099 -7.31,-0.271 -14.38,2.799 -21.51,4.21 1.3,10.939 5.79,21.189 10.3,31.139 C -24.39,-25.72 -13.75,-11.149 0,0" /></g><g
           transform="translate(358.9746,118.0375)"
           id="g448"><path
             id="path450"
             style="fill:#435752;fill-opacity:1;fill-rule:nonzero;stroke:none"
             d="m 0,0 c 4.86,-2.68 10.69,-6.29 11.13,-12.42 -1,-0.519 -1.99,-1.05 -2.98,-1.6 l -0.83,0.07 -0.02,0.87 0.02,0.87 c 0.97,0.54 1.94,1.061 2.93,1.561 C 9.28,-9.62 8.32,-8.609 7.33,-7.63 5.67,-5.979 3.92,-4.43 2.16,-2.899 1.42,-1.93 0.72,-0.95 0,0" /></g><g
           transform="translate(366.3047,110.4076)"
           id="g452"><path
             id="path454"
             style="fill:#c7e86e;fill-opacity:1;fill-rule:nonzero;stroke:none"
             d="M 0,0 C 0.99,-0.979 1.95,-1.99 2.92,-3.02 1.93,-3.52 0.96,-4.04 -0.01,-4.58 0,-3.04 0,-1.51 0,0" /></g></g></g></g></svg>